<?xml version="1.0" encoding="UTF-8" standalone="no"?>
<!-- Created with Inkscape (http://www.inkscape.org/) -->

<svg
   xmlns:dc="http://purl.org/dc/elements/1.1/"
   xmlns:cc="http://creativecommons.org/ns#"
   xmlns:rdf="http://www.w3.org/1999/02/22-rdf-syntax-ns#"
   xmlns:svg="http://www.w3.org/2000/svg"
   xmlns="http://www.w3.org/2000/svg"
   xmlns:xlink="http://www.w3.org/1999/xlink"
   xmlns:sodipodi="http://sodipodi.sourceforge.net/DTD/sodipodi-0.dtd"
   xmlns:inkscape="http://www.inkscape.org/namespaces/inkscape"
   width="128"
   height="128"
   id="svg2"
   version="1.1"
   inkscape:version="0.92.2 2405546, 2018-03-11"
   sodipodi:docname="Desligar.svg">
  <defs
     id="defs4">
    <radialGradient
       inkscape:collect="always"
       xlink:href="#linearGradient3927"
       id="radialGradient3923"
       gradientUnits="userSpaceOnUse"
       gradientTransform="matrix(0.08715779,5.9195116e-8,-5.9202917e-8,0.08716981,275.97749,323.05904)"
       cx="462.91895"
       cy="532.47711"
       fx="462.91895"
       fy="532.47711"
       r="353.36505" />
    <linearGradient
       inkscape:collect="always"
       id="linearGradient3927">
      <stop
         style="stop-color:#ffffff;stop-opacity:1;"
         offset="0"
         id="stop3929" />
      <stop
         id="stop3939"
         offset="0.93714738"
         style="stop-color:#ffffff;stop-opacity:1" />
      <stop
         style="stop-color:#ffffff;stop-opacity:0;"
         offset="1"
         id="stop3931" />
    </linearGradient>
  </defs>
  <sodipodi:namedview
     id="base"
     pagecolor="#ffffff"
     bordercolor="#666666"
     borderopacity="1.0"
     inkscape:pageopacity="0.0"
     inkscape:pageshadow="2"
     inkscape:zoom="3.1280209"
     inkscape:cx="104.26556"
     inkscape:cy="66.447221"
     inkscape:document-units="px"
     inkscape:current-layer="g4854"
     showgrid="false"
     fit-margin-top="0"
     fit-margin-left="0"
     fit-margin-right="0"
     fit-margin-bottom="0"
     inkscape:window-width="1432"
     inkscape:window-height="867"
     inkscape:window-x="0"
     inkscape:window-y="0"
     inkscape:window-maximized="0"
     inkscape:snap-bbox="true"
     inkscape:bbox-paths="true"
     inkscape:bbox-nodes="true"
     inkscape:snap-bbox-edge-midpoints="true"
     inkscape:snap-bbox-midpoints="true"
     inkscape:object-paths="true"
     inkscape:snap-intersection-paths="true"
     inkscape:object-nodes="true"
     inkscape:snap-page="true"
     inkscape:snap-smooth-nodes="true"
     inkscape:snap-midpoints="true"
     inkscape:snap-object-midpoints="true"
     inkscape:snap-center="true" />
  <metadata
     id="metadata7">
    <rdf:RDF>
      <cc:Work
         rdf:about="">
        <dc:format>image/svg+xml</dc:format>
        <dc:type
           rdf:resource="http://purl.org/dc/dcmitype/StillImage" />
        <dc:title></dc:title>
      </cc:Work>
    </rdf:RDF>
  </metadata>
  <g
     inkscape:label="Camada 1"
     inkscape:groupmode="layer"
     id="layer1"
     transform="translate(-510.95411,-347.11164)">
    <g
       transform="matrix(2.0093785,0,0,-2.0093785,428.62658,494.2101)"
       id="g5834">
      <g
         transform="matrix(1.004534,0,0,-1.004534,-244.93639,412.50551)"
         id="g4854">
        <rect
           ry="0"
           rx="0"
           y="337.7681"
           x="284.61758"
           height="63.413776"
           width="63.413769"
           id="rect3840"
           style="opacity:0.25;fill:#0029ff;fill-opacity:1;stroke:none" />
        <path
           id="path3874"
           d="m 317.47857,337.76945 c -0.42916,-0.0173 -0.91839,0.13675 -1.37958,0.32248 -0.48827,-0.1733 -1.0372,-0.32118 -1.50855,-0.29725 -0.42788,0.0217 -0.89891,0.21956 -1.34032,0.44588 -0.50305,-0.12931 -1.06562,-0.22388 -1.5338,-0.15704 -0.42527,0.0607 -0.87582,0.30031 -1.29545,0.56646 -0.51199,-0.0827 -1.08001,-0.12859 -1.53941,-0.0196 -0.41798,0.0991 -0.84555,0.38034 -1.23937,0.68423 -0.51661,-0.0353 -1.08473,-0.0293 -1.53099,0.12059 -0.40617,0.13638 -0.80525,0.45371 -1.16927,0.79079 -0.51936,0.011 -1.08662,0.0699 -1.51978,0.2608 -0.39232,0.17285 -0.76172,0.5258 -1.09356,0.89455 -0.51602,0.0584 -1.07557,0.16911 -1.48893,0.39821 -0.37587,0.20831 -0.71213,0.59384 -1.00945,0.9927 -0.50734,0.10514 -1.05368,0.26456 -1.44407,0.53 -0.35585,0.24196 -0.65701,0.65758 -0.91691,1.08244 -0.49518,0.15091 -1.02173,0.35731 -1.38518,0.6562 -0.33229,0.27324 -0.59571,0.71281 -0.81597,1.15815 -0.48067,0.19515 -0.98525,0.45104 -1.32069,0.78238 -0.30586,0.30213 -0.52799,0.76436 -0.70661,1.22826 -0.46028,0.23835 -0.9404,0.54171 -1.24498,0.90297 -0.27632,0.32775 -0.45327,0.80656 -0.58884,1.28434 -0.43816,0.27927 -0.89277,0.62145 -1.16367,1.00953 -0.24556,0.35179 -0.37689,0.84632 -0.46827,1.33482 -0.40993,0.31784 -0.83112,0.70234 -1.06553,1.11329 -0.2126,0.37273 -0.29817,0.8763 -0.34489,1.37128 -0.37938,0.3538 -0.76329,0.77328 -0.95897,1.20302 -0.17813,0.39118 -0.21955,0.90229 -0.22152,1.39931 -0.34492,0.3864 -0.68592,0.84009 -0.8412,1.28435 -0.14199,0.40623 -0.13819,0.91813 -0.0953,1.41334 -0.30823,0.41634 -0.6092,0.89792 -0.72343,1.35445 -0.10388,0.41515 -0.0536,0.92525 0.0336,1.41334 -0.26932,0.4431 -0.52196,0.95235 -0.59445,1.41895 -0.0657,0.42309 0.0309,0.92651 0.16264,1.40493 -0.22809,0.46594 -0.43564,0.99712 -0.46547,1.46942 -0.0269,0.42676 0.11373,0.91549 0.28881,1.37969 -0.18559,0.48484 -0.34409,1.03036 -0.33087,1.50307 0.012,0.42925 0.19835,0.9075 0.41499,1.35446 -0.14047,0.49944 -0.24953,1.05675 -0.19347,1.52551 0.0512,0.4283 0.28386,0.8862 0.54117,1.31238 -0.0943,0.50994 -0.15168,1.07524 -0.0533,1.53673 0.0892,0.41852 0.35922,0.85046 0.65333,1.25069 -0.0474,0.51693 -0.0534,1.08482 0.0869,1.53673 0.12736,0.41008 0.43568,0.8193 0.7655,1.19181 1.8e-4,0.51805 0.0439,1.08378 0.22432,1.5199 0.16422,0.39703 0.51032,0.77541 0.87205,1.11609 0.0468,0.51695 0.14195,1.07865 0.36172,1.49746 0.19872,0.37872 0.57642,0.72325 0.96738,1.02916 0.094,0.50968 0.24252,1.05884 0.49911,1.45541 0.23276,0.35971 0.63983,0.67024 1.05712,0.93942 0.13984,0.49914 0.33655,1.0334 0.62809,1.40492 0.26392,0.33631 0.69927,0.60555 1.13844,0.83567 0.18473,0.48567 0.42896,1.0013 0.75428,1.34604 0.295,0.31262 0.75162,0.54258 1.21133,0.73191 0.2277,0.4659 0.51765,0.9546 0.87205,1.26752 0.32138,0.28376 0.79815,0.4733 1.27302,0.61973 0.26898,0.44275 0.60125,0.9021 0.9814,1.18059 0.34624,0.25364 0.83724,0.39907 1.3235,0.50196 0.30845,0.41727 0.68028,0.8447 1.08515,1.08805 0.36739,0.22082 0.86964,0.32016 1.36275,0.37857 0.34526,0.38682 0.75764,0.77861 1.18329,0.98429 0.38526,0.18616 0.8948,0.2387 1.3908,0.25238 0.37922,0.35421 0.82456,0.70872 1.26741,0.87493 0.40173,0.15079 0.91441,0.15811 1.41042,0.12619 0.40925,0.31776 0.88337,0.62964 1.33751,0.75434 0.41348,0.11354 0.92546,0.0737 1.41603,-0.003 0.43674,0.27948 0.93964,0.54498 1.40481,0.62815 0.42319,0.0757 0.92768,-0.0102 1.41041,-0.1318 0.45991,0.23824 0.98299,0.45875 1.45249,0.49916 0.42706,0.0368 0.92019,-0.0943 1.38798,-0.258 0.48105,0.197 1.0247,0.36702 1.49734,0.36456 0.42962,-0.002 0.90858,-0.17803 1.35995,-0.38418 0.49662,0.15224 1.05176,0.27261 1.52258,0.22714 0.42883,-0.0414 0.89442,-0.25984 1.3263,-0.50757 0.50665,0.10533 1.06847,0.17461 1.53099,0.0869 0.41997,-0.0796 0.86108,-0.33781 1.26742,-0.62254 0.51562,0.0596 1.08484,0.0767 1.53939,-0.0533 0.41346,-0.11818 0.82881,-0.41607 1.20854,-0.73752 0.51811,0.0121 1.08284,-0.0204 1.52258,-0.19069 0.40059,-0.15513 0.78702,-0.49078 1.13562,-0.84407 0.51844,-0.0349 1.08162,-0.12048 1.50575,-0.33091 0.38395,-0.19048 0.7366,-0.56019 1.05151,-0.94502 0.5116,-0.0824 1.06364,-0.21763 1.4665,-0.46551 0.36456,-0.22432 0.68309,-0.62398 0.96177,-1.03477 0.50298,-0.12836 1.04067,-0.31136 1.41884,-0.5945 0.34281,-0.25666 0.62379,-0.68483 0.86364,-1.11889 0.48956,-0.17327 1.00821,-0.40636 1.35994,-0.7235 0.31925,-0.28785 0.56039,-0.74139 0.75989,-1.19741 0.47066,-0.21707 0.96669,-0.49464 1.28704,-0.84127 0.29103,-0.31492 0.49002,-0.78558 0.64773,-1.25631 0.44931,-0.25926 0.91811,-0.58177 1.20572,-0.95624 0.2614,-0.34036 0.41334,-0.82867 0.52716,-1.31239 0.42458,-0.2992 0.86246,-0.66189 1.11599,-1.06281 0.22966,-0.36318 0.34007,-0.86453 0.40939,-1.35725 0.39438,-0.33599 0.79498,-0.7361 1.00944,-1.15535 0.19465,-0.38051 0.25828,-0.8877 0.28321,-1.3825 0.36356,-0.3713 0.72886,-0.81022 0.90569,-1.25069 0.16,-0.39854 0.17781,-0.91113 0.15703,-1.40773 0.32753,-0.40198 0.65021,-0.86989 0.78512,-1.3208 0.12356,-0.41297 0.0941,-0.92493 0.028,-1.41895 0.28857,-0.42963 0.5684,-0.924 0.66175,-1.3853 0.0853,-0.42159 0.009,-0.92827 -0.10094,-1.41334 0.24884,-0.45473 0.48155,-0.97174 0.53276,-1.44138 0.0465,-0.42603 -0.0737,-0.92459 -0.22712,-1.39652 0.20712,-0.47593 0.38987,-1.01382 0.39816,-1.48625 0.008,-0.42756 -0.15738,-0.90988 -0.3533,-1.36566 0.16284,-0.4928 0.29552,-1.04789 0.26077,-1.51991 -0.0315,-0.42782 -0.2372,-0.89532 -0.47388,-1.33201 0.11726,-0.50504 0.20075,-1.06793 0.12338,-1.53392 -0.0703,-0.42317 -0.32074,-0.87084 -0.59725,-1.28435 0.0707,-0.51302 0.10246,-1.08023 -0.0169,-1.53672 -0.10881,-0.4164 -0.39951,-0.83832 -0.71222,-1.22546 0.0238,-0.51801 0.006,-1.08419 -0.15422,-1.52832 -0.14598,-0.40411 -0.47458,-0.79856 -0.82157,-1.15534 -0.023,-0.51803 -0.0917,-1.07865 -0.29162,-1.50588 -0.18215,-0.38922 -0.54544,-0.7531 -0.92252,-1.07683 -0.0701,-0.51412 -0.19043,-1.06949 -0.42902,-1.47784 -0.21629,-0.3702 -0.61002,-0.69654 -1.01505,-0.98429 -0.11669,-0.50585 -0.28874,-1.04782 -0.5636,-1.43297 -0.24929,-0.34931 -0.66964,-0.64183 -1.09918,-0.89175 -0.16223,-0.49206 -0.38432,-1.01608 -0.69259,-1.37408 -0.28065,-0.32593 -0.72668,-0.578 -1.17769,-0.78799 -0.20631,-0.47539 -0.47415,-0.97601 -0.81316,-1.30398 -0.3066,-0.29661 -0.77043,-0.50513 -1.23657,-0.67302 -0.24917,-0.45586 -0.56432,-0.93088 -0.93374,-1.22826 -0.33312,-0.26817 -0.81517,-0.43611 -1.29545,-0.56085 -0.28938,-0.43116 -0.64561,-0.87613 -1.04029,-1.13852 -0.35821,-0.23815 -0.85486,-0.35992 -1.34593,-0.44027 -0.32678,-0.40224 -0.71769,-0.81312 -1.13282,-1.03757 -0.37822,-0.2045 -0.88606,-0.27846 -1.38238,-0.31407 -0.36215,-0.37118 -0.78683,-0.74563 -1.21974,-0.93101 -0.39541,-0.16932 -0.90793,-0.19976 -1.40481,-0.19069 -0.39459,-0.33688 -0.8549,-0.66767 -1.30387,-0.81324 -0.4083,-0.13237 -0.91922,-0.11628 -1.41322,-0.0617 -0.42379,-0.29892 -0.91284,-0.58834 -1.37397,-0.69265 -0.41839,-0.0946 -0.92655,-0.029 -1.41322,0.0701 -0.44955,-0.26002 -0.96373,-0.50446 -1.43285,-0.56646 -0.42472,-0.0561 -0.92372,0.0535 -1.3992,0.1963 -0.47082,-0.21767 -1.00355,-0.41284 -1.47491,-0.43186 z"
           style="fill:url(#radialGradient3923);fill-opacity:1;stroke:none"
           inkscape:connector-curvature="0" />
        <path
           style="fill:#db0000;fill-opacity:1"
           d="M 64.212891 9.09375 C 33.638938 9.09375 9.09375 34.069543 9.09375 64.212891 C 9.09375 94.356239 33.638938 119.33203 64.212891 119.33203 C 94.786863 119.33203 119.33203 94.786863 119.33203 64.212891 C 119.33203 33.638938 94.786863 9.09375 64.212891 9.09375 z M 62.921875 33.638672 L 64.642578 33.638672 L 67.226562 34.929688 C 68.087811 35.790916 68.519531 37.083147 68.519531 38.375 L 68.519531 61.628906 C 68.519531 63.782008 67.227301 65.93461 65.074219 66.365234 C 62.059868 67.226463 59.475546 65.072925 59.044922 62.058594 L 59.044922 61.199219 L 59.044922 38.806641 C 59.044922 36.222914 60.768773 34.069276 62.921875 33.638672 z M 50.001953 43.003906 C 51.078502 43.003906 52.156339 43.32673 53.017578 43.972656 C 55.17068 45.695134 55.17068 49.14182 53.017578 51.294922 C 51.725725 52.586775 50.432478 53.446428 49.140625 54.738281 C 46.126294 58.183236 44.833984 62.490671 44.833984 66.796875 C 44.833984 69.811206 45.696408 72.824477 46.988281 75.408203 C 48.280134 77.991909 50.002231 80.14471 52.585938 81.867188 C 54.73904 83.589665 57.32356 84.451251 60.337891 85.3125 C 64.21347 86.173729 67.65856 85.743962 71.103516 84.021484 C 74.117846 82.729631 77.131038 80.575894 78.853516 77.992188 C 81.006618 75.408481 82.298828 72.394174 82.298828 68.949219 C 82.729453 65.504284 82.298649 61.629565 80.576172 58.615234 C 79.284319 56.031508 77.131597 53.877711 74.978516 51.724609 C 72.394789 49.571507 72.824497 46.126774 75.408203 44.404297 C 76.700076 43.543068 79.285335 43.112444 81.007812 44.404297 C 83.591539 46.126774 85.744319 48.279575 87.466797 50.863281 C 89.189274 53.447008 90.480548 56.462232 91.341797 59.476562 C 92.203026 62.921518 92.633749 66.797232 92.203125 70.242188 C 91.772521 74.117747 90.481207 77.992545 88.328125 81.4375 C 87.036252 84.021206 84.881618 86.174007 82.728516 87.896484 C 79.714185 90.480211 76.270111 92.202267 72.394531 93.494141 C 70.672054 93.924745 68.519353 94.356485 66.796875 94.787109 L 66.365234 94.787109 L 62.490234 94.787109 C 61.198381 94.787109 60.336775 94.355469 59.044922 94.355469 C 56.461216 93.924844 54.308316 93.064374 51.724609 92.203125 C 49.571507 91.341896 47.849431 90.050603 46.126953 88.328125 C 44.404476 86.605647 42.681462 84.881618 40.958984 82.728516 C 39.236507 80.144809 37.513572 77.130502 36.652344 73.685547 C 35.791095 70.240592 35.360411 67.226185 35.791016 63.78125 C 36.22164 59.044421 37.945591 54.738861 40.529297 50.863281 C 42.251774 48.279575 44.404555 45.695134 46.988281 43.972656 C 47.84951 43.32673 48.925405 43.003906 50.001953 43.003906 z "
           id="path278"
           transform="matrix(0.49542008,0,0,0.49542008,284.61757,337.76812)" />
      </g>
    </g>
  </g>
</svg>
