<?xml version="1.0" encoding="UTF-8" standalone="no"?>
<!-- Created with Inkscape (http://www.inkscape.org/) -->

<svg
   xmlns:dc="http://purl.org/dc/elements/1.1/"
   xmlns:cc="http://creativecommons.org/ns#"
   xmlns:rdf="http://www.w3.org/1999/02/22-rdf-syntax-ns#"
   xmlns:svg="http://www.w3.org/2000/svg"
   xmlns="http://www.w3.org/2000/svg"
   xmlns:sodipodi="http://sodipodi.sourceforge.net/DTD/sodipodi-0.dtd"
   xmlns:inkscape="http://www.inkscape.org/namespaces/inkscape"
   width="64"
   height="64"
   id="svg2"
   version="1.1"
   inkscape:version="0.92.2 2405546, 2018-03-11"
   sodipodi:docname="Imagem_DivisaoDesl.svg">
  <defs
     id="defs4" />
  <sodipodi:namedview
     id="base"
     pagecolor="#ffffff"
     bordercolor="#666666"
     borderopacity="1.0"
     inkscape:pageopacity="0.0"
     inkscape:pageshadow="2"
     inkscape:zoom="8.6919763"
     inkscape:cx="23.637851"
     inkscape:cy="27.455211"
     inkscape:document-units="px"
     inkscape:current-layer="layer1"
     showgrid="false"
     fit-margin-top="0"
     fit-margin-left="0"
     fit-margin-right="0"
     fit-margin-bottom="0"
     inkscape:window-width="1400"
     inkscape:window-height="867"
     inkscape:window-x="32"
     inkscape:window-y="0"
     inkscape:window-maximized="0"
     inkscape:snap-page="true"
     inkscape:snap-bbox="true"
     inkscape:bbox-paths="true"
     inkscape:bbox-nodes="true"
     inkscape:snap-bbox-edge-midpoints="true"
     inkscape:snap-bbox-midpoints="true"
     inkscape:snap-object-midpoints="true"
     inkscape:snap-center="true" />
  <metadata
     id="metadata7">
    <rdf:RDF>
      <cc:Work
         rdf:about="">
        <dc:format>image/svg+xml</dc:format>
        <dc:type
           rdf:resource="http://purl.org/dc/dcmitype/StillImage" />
        <dc:title></dc:title>
      </cc:Work>
    </rdf:RDF>
  </metadata>
  <g
     inkscape:label="Camada 1"
     inkscape:groupmode="layer"
     id="layer1"
     transform="translate(-624.75903,-235.0862)">
    <path
       id="rect834"
       d="m 631.57152,236.0862 h 50.375 c 3.22013,0 5.8125,2.59237 5.8125,5.8125 v 50.375 c 0,3.22012 -2.59237,5.8125 -5.8125,5.8125 h -50.375 c -3.22012,0 -5.8125,-2.59238 -5.8125,-5.8125 v -50.375 c 0,-3.22013 2.59238,-5.8125 5.8125,-5.8125 z"
       style="opacity:1;fill:#ffffff;fill-opacity:1;fill-rule:nonzero;stroke:#0029ff;stroke-width:2;stroke-linecap:round;stroke-linejoin:miter;stroke-miterlimit:10;stroke-dasharray:none;stroke-dashoffset:0;stroke-opacity:1"
       inkscape:connector-curvature="0" />
    <g
       id="g832"
       transform="matrix(2.5,0,0,2.5,-937.13855,-352.6293)">
      <path
         sodipodi:nodetypes="ccccc"
         inkscape:connector-curvature="0"
         id="path844"
         d="m 626.4391,241.80612 h 11.11993 v 12.16016 H 626.4391 Z"
         style="opacity:1;fill:#ffffff;fill-opacity:1;fill-rule:nonzero;stroke:none;stroke-width:0.04;stroke-linecap:round;stroke-linejoin:miter;stroke-miterlimit:4;stroke-dasharray:none;stroke-dashoffset:0;stroke-opacity:1" />
      <path
         id="path846"
         style="fill:#5b5b5b;fill-opacity:1;fill-rule:evenodd;stroke:none;stroke-width:0.04;stroke-linecap:butt;stroke-linejoin:miter;stroke-miterlimit:4;stroke-dasharray:none;stroke-opacity:1"
         d="m 641.35074,255.7769 c -2.0941,-1.88083 -5.48932,-1.88083 -7.58342,0 z"
         inkscape:connector-curvature="0"
         sodipodi:nodetypes="ccc" />
      <g
         aria-label=" A"
         style="font-style:normal;font-variant:normal;font-weight:normal;font-stretch:normal;font-size:3.20000005px;line-height:125%;font-family:Arial;-inkscape-font-specification:Arial;letter-spacing:0px;word-spacing:0px;fill:#5b5b5b;fill-opacity:1;stroke:none;stroke-width:0.40000001px;stroke-linecap:butt;stroke-linejoin:miter;stroke-opacity:1"
         id="text852">
        <path
           inkscape:connector-curvature="0"
           d="m 634.84653,250.13775 -0.39062,-1.125 h -1.67813 l -0.39062,1.125 h -0.92188 l 1.60625,-4.40312 h 1.0875 l 1.6,4.40312 z m -1.23125,-3.725 -0.0187,0.0688 q -0.0312,0.1125 -0.075,0.25625 -0.0437,0.14375 -0.5375,1.58125 h 1.26563 l -0.43438,-1.26562 -0.13437,-0.425 z"
           style="stroke-width:0.40000001px"
           id="path841" />
      </g>
      <path
         style="opacity:1;fill:#5b5b5b;fill-opacity:1;fill-rule:nonzero;stroke:none;stroke-width:0.04;stroke-linecap:round;stroke-linejoin:miter;stroke-miterlimit:4;stroke-dasharray:none;stroke-dashoffset:0;stroke-opacity:1"
         d="m 637.55903,241.80612 h 11.11993 v 12.16016 h -11.11993 z"
         id="rect870"
         inkscape:connector-curvature="0"
         sodipodi:nodetypes="ccccc" />
      <g
         aria-label=" B"
         style="font-style:normal;font-variant:normal;font-weight:normal;font-stretch:normal;font-size:3.20000005px;line-height:125%;font-family:Arial;-inkscape-font-specification:Arial;letter-spacing:0px;word-spacing:0px;fill:#ffffff;fill-opacity:1;stroke:none;stroke-width:0.40000001px;stroke-linecap:butt;stroke-linejoin:miter;stroke-opacity:1"
         id="text860">
        <path
           inkscape:connector-curvature="0"
           d="m 643.56617,248.8815 q 0,0.6 -0.45,0.92813 -0.45,0.32812 -1.25,0.32812 h -2.20312 v -4.40312 h 2.01562 q 0.80625,0 1.21875,0.28125 0.41563,0.27812 0.41563,0.825 0,0.375 -0.20938,0.63437 -0.20625,0.25625 -0.63125,0.34688 0.53438,0.0625 0.8125,0.3375 0.28125,0.27187 0.28125,0.72187 z m -1.18125,-1.91562 q 0,-0.29688 -0.19062,-0.42188 -0.1875,-0.125 -0.55938,-0.125 h -1.05 v 1.09063 h 1.05625 q 0.39063,0 0.56563,-0.13438 0.17812,-0.1375 0.17812,-0.40937 z m 0.25625,1.84375 q 0,-0.61875 -0.8875,-0.61875 h -1.16875 v 1.2625 h 1.20313 q 0.44375,0 0.64687,-0.15938 0.20625,-0.1625 0.20625,-0.48437 z"
           style="stroke-width:0.40000001px"
           id="path838" />
      </g>
      <rect
         style="opacity:1;fill:#ffff00;fill-opacity:1;fill-rule:nonzero;stroke:none;stroke-width:1.19518352;stroke-linecap:round;stroke-linejoin:miter;stroke-miterlimit:10;stroke-dasharray:none;stroke-dashoffset:0;stroke-opacity:1"
         id="rect842"
         width="0.80000001"
         height="12.960157"
         x="637.15906"
         y="241.40613"
         ry="0" />
      <path
         style="opacity:1;fill:#5b5b5b;fill-opacity:1;fill-rule:nonzero;stroke:none;stroke-width:0.80000001;stroke-linecap:round;stroke-linejoin:miter;stroke-miterlimit:10;stroke-dasharray:none;stroke-dashoffset:0;stroke-opacity:1"
         d="m 626.43911,241.40612 c -0.2216,0 -0.4,0.1784 -0.4,0.4 v 12.16016 c 0,0.2216 0.1784,0.4 0.4,0.4 h 22.23985 c 0.2216,0 0.4,-0.1784 0.4,-0.4 v -12.16016 c 0,-0.2216 -0.1784,-0.4 -0.4,-0.4 z m 1.2,0.8 h 19.83985 c 0.4432,0 0.8,0.3568 0.8,0.8 v 9.76016 c 0,0.4432 -0.3568,0.8 -0.8,0.8 h -19.83985 c -0.4432,0 -0.8,-0.3568 -0.8,-0.8 v -9.76016 c 0,-0.4432 0.3568,-0.8 0.8,-0.8 z"
         id="rect838"
         inkscape:connector-curvature="0" />
    </g>
  </g>
</svg>
