<?xml version="1.0" encoding="UTF-8" standalone="no"?>
<!-- Created with Inkscape (http://www.inkscape.org/) -->

<svg
   xmlns:dc="http://purl.org/dc/elements/1.1/"
   xmlns:cc="http://creativecommons.org/ns#"
   xmlns:rdf="http://www.w3.org/1999/02/22-rdf-syntax-ns#"
   xmlns:svg="http://www.w3.org/2000/svg"
   xmlns="http://www.w3.org/2000/svg"
   xmlns:sodipodi="http://sodipodi.sourceforge.net/DTD/sodipodi-0.dtd"
   xmlns:inkscape="http://www.inkscape.org/namespaces/inkscape"
   width="64"
   height="64"
   id="svg2"
   version="1.1"
   inkscape:version="0.48.3.1 r9886"
   sodipodi:docname="Imagem_TrocaCamera.svg">
  <defs
     id="defs4" />
  <sodipodi:namedview
     id="base"
     pagecolor="#ffffff"
     bordercolor="#666666"
     borderopacity="1.0"
     inkscape:pageopacity="0.0"
     inkscape:pageshadow="2"
     inkscape:zoom="5.6568543"
     inkscape:cx="33.93977"
     inkscape:cy="15.759487"
     inkscape:document-units="px"
     inkscape:current-layer="layer1"
     showgrid="false"
     fit-margin-top="0"
     fit-margin-left="0"
     fit-margin-right="0"
     fit-margin-bottom="0"
     inkscape:window-width="1280"
     inkscape:window-height="1004"
     inkscape:window-x="-2"
     inkscape:window-y="-3"
     inkscape:window-maximized="1"
     inkscape:snap-bbox="true"
     inkscape:bbox-paths="true"
     inkscape:bbox-nodes="true"
     inkscape:snap-bbox-edge-midpoints="true"
     showguides="true"
     inkscape:guide-bbox="true"
     inkscape:snap-page="true" />
  <metadata
     id="metadata7">
    <rdf:RDF>
      <cc:Work
         rdf:about="">
        <dc:format>image/svg+xml</dc:format>
        <dc:type
           rdf:resource="http://purl.org/dc/dcmitype/StillImage" />
        <dc:title />
      </cc:Work>
    </rdf:RDF>
  </metadata>
  <g
     inkscape:label="Camada 1"
     inkscape:groupmode="layer"
     id="layer1"
     transform="translate(-566.3522,-196.74809)">
    <g
       id="g3081">
      <g
         id="g3077">
        <path
           transform="matrix(4.5714286,0,0,4.5712192,-128.63757,-232.99935)"
           style="fill:#ffffff;fill-rule:evenodd;stroke:none"
           d="m 154.11901,94.012199 9.82,0 c 1.15786,0 2.09,0.93214 2.09,2.09 l 0,9.820001 c 0,1.15786 -0.93214,2.09 -2.09,2.09 l -9.82,0 c -1.15786,0 -2.09,-0.93214 -2.09,-2.09 l 0,-9.820001 c 0,-1.15786 0.93214,-2.09 2.09,-2.09 z"
           id="rect780"
           inkscape:connector-curvature="0" />
        <path
           sodipodi:nodetypes="cccccccc"
           transform="matrix(4.5869386,0,0,4.5811799,-131.20433,-234.06966)"
           class="fil4"
           d="m 152.6509,107.3684 12.75134,-12.737694 c -0.3232,-0.3021 -0.78795,-0.589284 -1.40909,-0.589284 -3.7207,0.0151 -6.14549,-0.0043 -9.86599,-2e-6 -1.09136,2e-6 -2.05263,0.891981 -2.05263,2.124385 l 0.002,9.807115 c -0.001,0.504 0.21091,1.01426 0.57415,1.39548 z"
           id="path784"
           inkscape:connector-curvature="0"
           style="fill:#0093dd;fill-rule:evenodd;stroke:none" />
      </g>
      <g
         id="g3053">
        <g
           transform="matrix(7.4437029,0,0,7.4433161,-502.62751,-532.60803)"
           style="font-size:4.1408px;font-weight:normal;fill:#000000;fill-opacity:1;fill-rule:evenodd;font-family:Arial Black"
           id="text810">
          <path
             d="m 151.07991,105 -2.47073,0 c 0.0283,-0.24397 0.11424,-0.47346 0.25779,-0.68845 0.14355,-0.21499 0.4128,-0.46874 0.80774,-0.76123 0.24128,-0.17928 0.39561,-0.31542 0.46301,-0.40842 0.0674,-0.093 0.10109,-0.1813 0.10109,-0.26487 0,-0.0903 -0.0334,-0.16748 -0.10008,-0.2315 -0.0667,-0.064 -0.15063,-0.096 -0.25172,-0.096 -0.10514,0 -0.19107,0.033 -0.25779,0.0991 -0.0667,0.066 -0.11154,0.18264 -0.13446,0.34978 l -0.82492,-0.0667 c 0.0324,-0.23184 0.0917,-0.4128 0.17792,-0.54287 0.0863,-0.13007 0.20792,-0.22982 0.36495,-0.29924 0.15703,-0.0694 0.37438,-0.10412 0.65206,-0.10413 0.2898,10e-6 0.51523,0.033 0.67631,0.0991 0.16108,0.066 0.28778,0.16748 0.38012,0.30429 0.0923,0.13681 0.13849,0.29014 0.13849,0.45998 0,0.18062 -0.0529,0.35315 -0.15871,0.5176 -0.10582,0.16444 -0.29823,0.34506 -0.57725,0.54186 -0.16579,0.11457 -0.27666,0.19477 -0.3326,0.2406 -0.0559,0.0458 -0.12165,0.10581 -0.19713,0.17995 l 1.28591,0 z"
             style="font-size:4.1408px;font-weight:normal;fill:#000000;fill-opacity:1;font-family:Arial Black"
             id="path5419"
             inkscape:connector-curvature="0" />
        </g>
        <g
           id="g3026">
          <path
             inkscape:connector-curvature="0"
             id="polygon814"
             d="m 161.983,106.26 -4.628,0 0,-3.323 4.628,0 z"
             style="fill:#ffffff;fill-rule:evenodd"
             transform="matrix(4.5714286,0,0,4.5712192,-128.63757,-232.99935)" />
          <path
             class="fil2"
             d="m 162.078,102.937 -0.0942,0.0938 -4.6286,0 0,-0.1876 4.6286,0 0.0942,0.0938 z m -0.0942,-0.0938 0.0942,0 0,0.0938 -0.0942,-0.0938 z m 0,3.5107 -0.0942,-0.0938 0,-3.3231 0.1884,0 0,3.3231 -0.0942,0.0938 z m 0.0942,-0.0938 0,0.0938 -0.0942,0 0.0942,-0.0938 z m -4.817,0 0.0942,-0.0938 4.6286,0 0,0.1876 -4.6286,0 -0.0942,-0.0938 z m 0.0942,0.0938 -0.0942,0 0,-0.0938 0.0942,0.0938 z m 0,-3.5107 0.0942,0.0938 0,3.3231 -0.1884,0 0,-3.3231 0.0942,-0.0938 z m -0.0942,0.0938 0,-0.0938 0.0942,0 -0.0942,0.0938 z"
             id="path816"
             inkscape:connector-curvature="0"
             style="fill:#000000;fill-opacity:1;fill-rule:nonzero"
             transform="matrix(4.5714286,0,0,4.5712192,-128.63757,-232.99935)" />
          <path
             inkscape:connector-curvature="0"
             id="polygon820"
             d="m 158.724,102.945 -0.761,0 0,-0.456 0.761,0 z"
             style="fill:#000000;fill-opacity:1;fill-rule:evenodd"
             transform="matrix(4.5714286,0,0,4.5712192,-128.63757,-232.99935)" />
          <path
             class="fil2"
             d="m 158.818,102.489 -0.0946,0.0938 -0.7605,0 0,-0.1876 0.7605,0 0.0946,0.0938 z m -0.0946,-0.0938 0.0946,0 0,0.0938 -0.0946,-0.0938 z m 0,0.6439 -0.0946,-0.0938 0,-0.4563 0.1892,0 0,0.4563 -0.0946,0.0938 z m 0.0946,-0.0938 0,0.0938 -0.0946,0 0.0946,-0.0938 z m -0.9497,0 0.0946,-0.0938 0.7605,0 0,0.1876 -0.7605,0 -0.0946,-0.0938 z m 0.0946,0.0938 -0.0946,0 0,-0.0938 0.0946,0.0938 z m 0,-0.6439 0.0946,0.0938 0,0.4563 -0.1892,0 0,-0.4563 0.0946,-0.0938 z m -0.0946,0.0938 0,-0.0938 0.0946,0 -0.0946,0.0938 z"
             id="path822"
             inkscape:connector-curvature="0"
             style="fill:#000000;fill-opacity:1;fill-rule:nonzero"
             transform="matrix(4.5714286,0,0,4.5712192,-128.63757,-232.99935)" />
          <path
             class="fil1"
             d="m 159.669,103.807 c 0.754,0 1.369,0.615 1.369,1.3689 0,0.754 -0.615,1.3689 -1.369,1.3689 -0.754,0 -1.3689,-0.6149 -1.3689,-1.3689 0,-0.7539 0.6149,-1.3689 1.3689,-1.3689 z"
             id="path826"
             inkscape:connector-curvature="0"
             style="fill:#ffffff;fill-rule:evenodd"
             transform="matrix(4.5714286,0,0,4.5712192,-128.63757,-232.99935)" />
          <path
             inkscape:connector-curvature="0"
             id="path3774"
             transform="matrix(1.2901588,0,0,1.2900997,615.72092,216.88864)"
             d="m -11.21875,18.75 c -2.852033,0 -5.15625,2.318139 -5.15625,5.1875 0,2.869361 2.304217,5.1875 5.15625,5.1875 2.852033,0 5.1875,-2.318139 5.1875,-5.1875 0,-2.869361 -2.335467,-5.1875 -5.1875,-5.1875 z m 0,0.6875 c 2.4746301,0 4.5,2.010335 4.5,4.5 0,2.489665 -2.0253699,4.5 -4.5,4.5 -2.47463,0 -4.46875,-2.010335 -4.46875,-4.5 0,-2.489665 1.99412,-4.5 4.46875,-4.5 z"
             style="fill:#000000;fill-opacity:1;fill-rule:evenodd;stroke:none" />
        </g>
      </g>
      <g
         id="g3042">
        <g
           transform="matrix(7.4437029,0,0,7.4433161,-524.02362,-554.77799)"
           style="font-size:4.1408px;font-weight:normal;fill:#000000;fill-opacity:1;fill-rule:evenodd;font-family:Arial Black"
           id="text788">
          <path
             d="m 150.53603,101.98538 0,3.01462 -0.83301,0 0,-1.97537 c -0.1348,0.10244 -0.26521,0.18534 -0.39124,0.24869 -0.12603,0.0633 -0.28407,0.12401 -0.47413,0.18197 l 0,-0.67531 c 0.28037,-0.0903 0.49806,-0.19881 0.65307,-0.32552 0.15501,-0.1267 0.27632,-0.28306 0.36394,-0.46908 z"
             style="font-size:4.1408px;font-weight:normal;fill:#000000;fill-opacity:1;font-family:Arial Black"
             id="path5424"
             inkscape:connector-curvature="0" />
        </g>
        <g
           id="g3034">
          <path
             inkscape:connector-curvature="0"
             id="polygon792"
             d="m 158.089,101.786 -4.629,0 0,-3.323 4.629,0 z"
             style="fill:#ffffff;fill-rule:evenodd"
             transform="matrix(4.5714286,0,0,4.5712192,-128.63757,-232.99935)" />
          <path
             class="fil2"
             d="m 158.183,98.463 -0.0942,0.0938 -4.6286,0 0,-0.1876 4.6286,0 0.0942,0.0938 z m -0.0942,-0.0938 0.0942,0 0,0.0938 -0.0942,-0.0938 z m 0,3.5107 -0.0942,-0.0938 0,-3.3231 0.1884,0 0,3.3231 -0.0942,0.0938 z m 0.0942,-0.0938 0,0.0938 -0.0942,0 0.0942,-0.0938 z m -4.817,0 0.0942,-0.0938 4.6286,0 0,0.1876 -4.6286,0 -0.0942,-0.0938 z m 0.0942,0.0938 -0.0942,0 0,-0.0938 0.0942,0.0938 z m 0,-3.5107 0.0942,0.0938 0,3.3231 -0.1884,0 0,-3.3231 0.0942,-0.0938 z m -0.0942,0.0938 0,-0.0938 0.0942,0 -0.0942,0.0938 z"
             id="path794"
             inkscape:connector-curvature="0"
             style="fill:#000000;fill-opacity:1;fill-rule:nonzero"
             transform="matrix(4.5714286,0,0,4.5712192,-128.63757,-232.99935)" />
          <path
             inkscape:connector-curvature="0"
             id="polygon798"
             d="m 154.829,98.4712 -0.76,0 0,-0.4562 0.76,0 z"
             style="fill:#000000;fill-opacity:1;fill-rule:evenodd"
             transform="matrix(4.5714286,0,0,4.5712192,-128.63757,-232.99935)" />
          <path
             class="fil2"
             d="m 154.924,98.015 -0.0946,0.0938 -0.7605,0 0,-0.1876 0.7605,0 0.0946,0.0938 z m -0.0946,-0.0938 0.0945,0 1e-4,0.0938 -0.0946,-0.0938 z m 0,0.6438 -0.0946,-0.0938 0,-0.4562 0.1892,0 0,0.4562 -0.0946,0.0938 z m 0.0946,-0.0938 0,0.0937 -0.0946,1e-4 0.0946,-0.0938 z m -0.9497,0 0.0946,-0.0938 0.7605,0 0,0.1876 -0.7605,0 -0.0946,-0.0938 z m 0.0946,0.0938 -0.0945,0 -1e-4,-0.0938 0.0946,0.0938 z m 0,-0.6438 0.0946,0.0938 0,0.4562 -0.1892,0 0,-0.4562 0.0946,-0.0938 z m -0.0946,0.0938 0,-0.0937 0.0946,-1e-4 -0.0946,0.0938 z"
             id="path800"
             inkscape:connector-curvature="0"
             style="fill:#000000;fill-opacity:1;fill-rule:nonzero"
             transform="matrix(4.5714286,0,0,4.5712192,-128.63757,-232.99935)" />
          <path
             class="fil1"
             d="m 155.775,99.3331 c 0.754,0 1.3689,0.615 1.3689,1.3689 0,0.7539 -0.6149,1.3689 -1.3689,1.3689 -0.7539,0 -1.3688,-0.615 -1.3688,-1.3689 0,-0.7539 0.6149,-1.3689 1.3688,-1.3689 z"
             id="path804"
             inkscape:connector-curvature="0"
             style="fill:#ffffff;fill-rule:evenodd"
             transform="matrix(4.5714286,0,0,4.5712192,-128.63757,-232.99935)" />
          <path
             style="fill:#000000;fill-opacity:1;fill-rule:evenodd;stroke:none"
             d="m -11.21875,18.75 c -2.852033,0 -5.15625,2.318139 -5.15625,5.1875 0,2.869361 2.304217,5.1875 5.15625,5.1875 2.852033,0 5.1875,-2.318139 5.1875,-5.1875 0,-2.869361 -2.335467,-5.1875 -5.1875,-5.1875 z m 0,0.6875 c 2.4746301,0 4.5,2.010335 4.5,4.5 0,2.489665 -2.0253699,4.5 -4.5,4.5 -2.47463,0 -4.46875,-2.010335 -4.46875,-4.5 0,-2.489665 1.99412,-4.5 4.46875,-4.5 z"
             transform="matrix(1.2901588,0,0,1.2900997,597.94093,196.44865)"
             id="path3769"
             inkscape:connector-curvature="0" />
        </g>
      </g>
      <path
         id="path3863"
         style="fill:#000000;fill-opacity:1;fill-rule:evenodd;stroke:#000000;stroke-width:0;stroke-miterlimit:4;stroke-opacity:1;stroke-dasharray:none"
         d="m 682.62531,294.01312 4e-5,-38.13712 c 0,-2.52253 -2.04416,-4.49445 -4.49449,-4.49445 l -38.11927,0 c -2.65762,0 -4.51223,2.21692 -4.51223,4.49445 l -4e-5,38.13712 c 0,2.28178 1.92398,4.49445 4.51223,4.49445 l 38.11931,0 c 2.26966,0 4.49444,-1.84366 4.49445,-4.49445 z m 1.24017,-1e-5 0,-38.13711 c 0,-3.17697 -2.56555,-5.73461 -5.75236,-5.73461 l -38.10157,0 c -3.18681,0 -5.75237,2.55764 -5.75237,5.73461 l 0,38.13711 c 0,3.17697 2.56556,5.73461 5.75237,5.73461 l 38.10157,0 c 3.18681,0 5.75236,-2.55764 5.75236,-5.73461 z"
         inkscape:connector-curvature="0"
         sodipodi:nodetypes="ssssssssssssssssss"
         transform="matrix(1.2901587,0,0,1.290158,-251.9428,-125.97383)" />
    </g>
  </g>
</svg>
