<?xml version="1.0" encoding="UTF-8" standalone="no"?>
<!-- Created with Inkscape (http://www.inkscape.org/) -->

<svg
   xmlns:dc="http://purl.org/dc/elements/1.1/"
   xmlns:cc="http://creativecommons.org/ns#"
   xmlns:rdf="http://www.w3.org/1999/02/22-rdf-syntax-ns#"
   xmlns:svg="http://www.w3.org/2000/svg"
   xmlns="http://www.w3.org/2000/svg"
   xmlns:sodipodi="http://sodipodi.sourceforge.net/DTD/sodipodi-0.dtd"
   xmlns:inkscape="http://www.inkscape.org/namespaces/inkscape"
   width="64"
   height="64"
   id="svg2"
   version="1.1"
   inkscape:version="0.92.2 2405546, 2018-03-11"
   sodipodi:docname="Imagem_EspelhoDesl.svg">
  <defs
     id="defs4" />
  <sodipodi:namedview
     id="base"
     pagecolor="#ffffff"
     bordercolor="#666666"
     borderopacity="1.0"
     inkscape:pageopacity="0.0"
     inkscape:pageshadow="2"
     inkscape:zoom="6.7868995"
     inkscape:cx="30.895819"
     inkscape:cy="29.217237"
     inkscape:document-units="px"
     inkscape:current-layer="layer1"
     showgrid="false"
     fit-margin-top="0"
     fit-margin-left="0"
     fit-margin-right="0"
     fit-margin-bottom="0"
     inkscape:window-width="1200"
     inkscape:window-height="867"
     inkscape:window-x="232"
     inkscape:window-y="0"
     inkscape:window-maximized="0"
     inkscape:snap-bbox="true"
     inkscape:snap-page="true"
     inkscape:bbox-paths="true"
     inkscape:bbox-nodes="true"
     inkscape:snap-bbox-edge-midpoints="true"
     inkscape:snap-bbox-midpoints="true"
     inkscape:object-paths="true"
     inkscape:snap-intersection-paths="true"
     inkscape:object-nodes="true"
     inkscape:snap-smooth-nodes="true"
     inkscape:snap-midpoints="true"
     inkscape:snap-object-midpoints="true"
     inkscape:snap-center="true" />
  <metadata
     id="metadata7">
    <rdf:RDF>
      <cc:Work
         rdf:about="">
        <dc:format>image/svg+xml</dc:format>
        <dc:type
           rdf:resource="http://purl.org/dc/dcmitype/StillImage" />
        <dc:title></dc:title>
      </cc:Work>
    </rdf:RDF>
  </metadata>
  <g
     inkscape:label="Camada 1"
     inkscape:groupmode="layer"
     id="layer1"
     transform="translate(-567.92098,-187.38222)">
    <path
       inkscape:connector-curvature="0"
       style="opacity:1;fill:#ffffff;fill-opacity:1;fill-rule:nonzero;stroke:#0029ff;stroke-width:2;stroke-linecap:round;stroke-linejoin:miter;stroke-miterlimit:10;stroke-dasharray:none;stroke-dashoffset:0;stroke-opacity:1"
       d="m 574.73348,188.38222 h 50.375 c 3.22013,0 5.8125,2.59237 5.8125,5.8125 v 50.375 c 0,3.22012 -2.59237,5.8125 -5.8125,5.8125 h -50.375 c -3.22012,0 -5.8125,-2.59238 -5.8125,-5.8125 v -50.375 c 0,-3.22013 2.59238,-5.8125 5.8125,-5.8125 z"
       id="rect834" />
    <path
       style="line-height:normal;font-family:Sans;-inkscape-font-specification:Sans;text-indent:0;text-align:start;text-transform:none;overflow:visible;stroke-width:2.07673502;fill:#5b5b5b;fill-opacity:1"
       d="m 626.91854,192.38466 c -6.0816,0 -10.51302,4.32715 -13.36899,8.30694 -0.32334,0.45059 -0.55849,0.85859 -0.84367,1.29796 -4.18491,-4.61988 -10.23104,-7.52816 -16.93837,-7.52816 -12.5921,0 -22.84409,10.25199 -22.84409,22.84408 0,9.91035 6.34269,18.3269 15.18613,21.48123 0.23151,0.10363 0.38982,0.17507 0.58408,0.25959 2.21874,0.72094 4.61854,1.10327 7.07388,1.10327 5.37368,0 10.31319,-1.87845 14.21266,-4.99714 0.42616,0.63147 0.88936,1.21223 1.42775,1.75224 1.88144,1.88709 4.42847,3.2449 7.20368,3.2449 v 6.23021 h 4.15347 v -8.30694 -2.07674 h -2.07674 -2.07673 c -1.37827,0 -2.98471,-0.77448 -4.21837,-2.01184 -1.23367,-1.23736 -2.01184,-2.85885 -2.01184,-4.21836 v -4.67266 -1.62245 l -1.55755,-0.38939 c 0,0 -2.26692,-0.57268 -3.43959,-0.90857 -0.16365,-0.0469 -0.0449,0.002 -0.0648,-0.0648 -0.0208,-0.0673 -0.0145,-0.30183 0.1298,-0.58408 0.69296,-1.35698 5.58122,-11.22735 5.58122,-11.22735 v -0.0648 l 0.0648,-0.12979 c 0,0 1.33476,-3.4684 3.82898,-6.94408 2.49422,-3.47569 5.9518,-6.6196 9.99429,-6.6196 z m -31.15103,6.23021 c 6.01317,0 11.31301,2.81011 14.73184,7.20367 -0.73373,1.48286 -1.12991,2.49528 -1.16816,2.59592 -0.002,0.004 -0.1298,0.19459 -0.1298,0.19459 -0.15762,0.31585 -4.86245,9.81442 -5.45143,10.96776 -0.58055,1.13616 -0.82936,2.43989 -0.45429,3.69918 0.37508,1.25929 1.50169,2.44964 2.92041,2.85551 0.71758,0.2056 1.2427,0.31349 2.01184,0.51919 v 3.1151 c 0,0.45944 0.0611,0.91956 0.1298,1.36286 -3.32185,3.02038 -7.7353,4.86735 -12.59021,4.86735 -1.03924,0 -2.05784,-0.0976 -3.0502,-0.2596 1.32771,-1.70396 2.14163,-3.75396 2.14163,-5.97061 v -3.1151 c 0.76914,-0.2056 1.29426,-0.31365 2.01184,-0.51919 1.41872,-0.40587 2.48043,-1.59622 2.85551,-2.85551 0.37508,-1.25929 0.19106,-2.56302 -0.38939,-3.69918 -0.59877,-1.17248 -5.58123,-11.16245 -5.58123,-11.16245 -0.15471,-0.71413 -1.1005,-4.71022 -4.47796,-8.63143 2.02139,-0.74555 4.2046,-1.16816 6.4898,-1.16816 z m -10.31878,3.1151 c 3.54536,3.70342 4.41306,8.04735 4.41306,8.04735 l 0.0648,0.25959 0.12979,0.25959 c 0,0 4.88827,9.87037 5.58123,11.22735 0.14413,0.28225 0.14973,0.51686 0.1298,0.58408 -0.0208,0.0673 0.0988,0.0187 -0.0648,0.0648 -1.17267,0.33589 -3.50449,0.90857 -3.50449,0.90857 l -1.49265,0.38939 v 1.62245 4.67265 c 0,1.51209 -1.03897,3.33823 -2.46612,4.60776 -6.56766,-2.89381 -11.16246,-9.41181 -11.16246,-17.06817 0,-6.51914 3.33379,-12.23269 8.37184,-15.57551 z m -2.14163,9.34531 c -1.14694,0 -2.07674,0.92977 -2.07674,2.07673 0,1.14694 0.9298,2.07674 2.07674,2.07674 1.14694,0 2.07673,-0.9298 2.07673,-2.07674 0,-1.14696 -0.92979,-2.07673 -2.07673,-2.07673 z m 35.3045,0 c -1.14696,0 -2.07674,0.92977 -2.07674,2.07673 0,1.14694 0.92978,2.07674 2.07674,2.07674 1.14693,0 2.07673,-0.9298 2.07673,-2.07674 0,-1.14696 -0.9298,-2.07673 -2.07673,-2.07673 z"
       overflow="visible"
       id="path2"
       inkscape:connector-curvature="0"
       sodipodi:nodetypes="cscssccsccccccccssscccccccccsccsccccsccscscsccscccsccccccccccscscssssssssss" />
  </g>
</svg>
