<?xml version="1.0" encoding="UTF-8" standalone="no"?>
<!-- Created with Inkscape (http://www.inkscape.org/) -->

<svg
   xmlns:dc="http://purl.org/dc/elements/1.1/"
   xmlns:cc="http://creativecommons.org/ns#"
   xmlns:rdf="http://www.w3.org/1999/02/22-rdf-syntax-ns#"
   xmlns:svg="http://www.w3.org/2000/svg"
   xmlns="http://www.w3.org/2000/svg"
   xmlns:xlink="http://www.w3.org/1999/xlink"
   xmlns:sodipodi="http://sodipodi.sourceforge.net/DTD/sodipodi-0.dtd"
   xmlns:inkscape="http://www.inkscape.org/namespaces/inkscape"
   width="64"
   height="64"
   id="svg2"
   version="1.1"
   inkscape:version="0.92.2 2405546, 2018-03-11"
   sodipodi:docname="Imagem_ExtremosZoom.svg">
  <defs
     id="defs4">
    <linearGradient
       inkscape:collect="always"
       id="linearGradient963">
      <stop
         style="stop-color:#8c8c8c;stop-opacity:1;"
         offset="0"
         id="stop957" />
      <stop
         id="stop959"
         offset="0.63553572"
         style="stop-color:#dadada;stop-opacity:1" />
      <stop
         style="stop-color:#8c8c8c;stop-opacity:0.9955157"
         offset="1"
         id="stop961" />
    </linearGradient>
    <linearGradient
       inkscape:collect="always"
       xlink:href="#linearGradient872"
       id="linearGradient874"
       x1="544.23822"
       y1="295.98618"
       x2="571.00922"
       y2="295.98618"
       gradientUnits="userSpaceOnUse" />
    <linearGradient
       inkscape:collect="always"
       id="linearGradient872">
      <stop
         style="stop-color:#8c8c8c;stop-opacity:1;"
         offset="0"
         id="stop868" />
      <stop
         id="stop886"
         offset="0.37149325"
         style="stop-color:#c5c5c5;stop-opacity:1" />
      <stop
         style="stop-color:#8c8c8c;stop-opacity:1"
         offset="1"
         id="stop870" />
    </linearGradient>
    <linearGradient
       inkscape:collect="always"
       xlink:href="#linearGradient963"
       id="linearGradient876"
       x1="544.95233"
       y1="304.88574"
       x2="571.71606"
       y2="304.88574"
       gradientUnits="userSpaceOnUse" />
    <linearGradient
       inkscape:collect="always"
       xlink:href="#linearGradient872"
       id="linearGradient1013"
       gradientUnits="userSpaceOnUse"
       x1="544.23822"
       y1="295.98618"
       x2="571.00922"
       y2="295.98618" />
    <linearGradient
       inkscape:collect="always"
       xlink:href="#linearGradient963"
       id="linearGradient1015"
       gradientUnits="userSpaceOnUse"
       x1="544.95233"
       y1="304.88574"
       x2="571.71606"
       y2="304.88574" />
  </defs>
  <sodipodi:namedview
     id="base"
     pagecolor="#ffffff"
     bordercolor="#666666"
     borderopacity="1.0"
     inkscape:pageopacity="0.0"
     inkscape:pageshadow="2"
     inkscape:zoom="3.5355339"
     inkscape:cx="26.615927"
     inkscape:cy="-21.4997"
     inkscape:document-units="px"
     inkscape:current-layer="layer1"
     showgrid="false"
     fit-margin-top="0"
     fit-margin-left="0"
     fit-margin-right="0"
     fit-margin-bottom="0"
     inkscape:window-width="1153"
     inkscape:window-height="867"
     inkscape:window-x="279"
     inkscape:window-y="0"
     inkscape:window-maximized="0"
     inkscape:snap-bbox="true"
     inkscape:snap-page="true"
     inkscape:bbox-paths="true"
     inkscape:bbox-nodes="true"
     inkscape:snap-bbox-edge-midpoints="true"
     inkscape:snap-bbox-midpoints="true"
     inkscape:object-paths="true"
     inkscape:snap-intersection-paths="true"
     inkscape:object-nodes="true"
     inkscape:snap-smooth-nodes="true"
     inkscape:snap-midpoints="true"
     inkscape:snap-object-midpoints="true"
     inkscape:snap-center="true"
     showguides="true"
     inkscape:guide-bbox="true"
     inkscape:snap-global="false" />
  <metadata
     id="metadata7">
    <rdf:RDF>
      <cc:Work
         rdf:about="">
        <dc:format>image/svg+xml</dc:format>
        <dc:type
           rdf:resource="http://purl.org/dc/dcmitype/StillImage" />
        <dc:title></dc:title>
      </cc:Work>
    </rdf:RDF>
  </metadata>
  <g
     inkscape:label="Camada 1"
     inkscape:groupmode="layer"
     id="layer1"
     transform="translate(-591.18719,-205.90805)">
    <path
       inkscape:connector-curvature="0"
       id="path833-3"
       d="m 597.99969,206.90805 h 50.375 c 3.22013,0 5.8125,2.59237 5.8125,5.8125 v 50.375 c 0,3.22012 -2.59237,5.8125 -5.8125,5.8125 h -50.375 c -3.22012,0 -5.8125,-2.59238 -5.8125,-5.8125 v -50.375 c 0,-3.22013 2.59238,-5.8125 5.8125,-5.8125 z"
       style="opacity:1;fill:#0029ff;fill-opacity:0.12156863;fill-rule:nonzero;stroke:#0029ff;stroke-width:2;stroke-linecap:round;stroke-linejoin:miter;stroke-miterlimit:10;stroke-dasharray:none;stroke-dashoffset:0;stroke-opacity:1" />
    <g
       transform="matrix(0.5,0,0,0.5,330.42802,112.83045)"
       id="g1011">
      <path
         sodipodi:nodetypes="scccs"
         d="m 554.60398,273.10477 c 7.15343,0.54238 13.1877,4.0313 12.74766,7.66103 -0.43748,3.62929 -7.42936,7.30966 -14.5828,6.7673 -7.15601,-0.54196 -12.68732,-4.07922 -12.24728,-7.70893 0.44005,-3.62971 6.92898,-7.26177 14.08242,-6.7194 z"
         style="fill:#aecff1;fill-opacity:0.74901961;fill-rule:evenodd;stroke:none;stroke-width:0.56835145;stroke-linecap:butt;stroke-linejoin:miter;stroke-miterlimit:2.61299992;stroke-dasharray:none;stroke-opacity:0.74901961"
         id="path999"
         inkscape:connector-curvature="0" />
      <g
         transform="rotate(-9.0234709,427.45105,316.49326)"
         id="g1005">
        <path
           id="path1001"
           style="fill:url(#linearGradient1013);fill-opacity:1;stroke:none;stroke-width:1.25682044;stroke-linecap:butt;stroke-linejoin:miter;stroke-miterlimit:2.61299992;stroke-dasharray:none;stroke-opacity:1"
           d="m 544.71909,299.39285 c -1.95924,-4.62841 2.24772,-8.40389 9.3672,-8.40389 7.11696,0 14.51991,3.77548 16.48165,8.40389 0.23019,0.54378 0.37526,1.07578 0.44127,1.59056 -2.25058,-4.40627 -9.3851,-7.92233 -16.25563,-7.92233 -6.29785,0 -10.31896,2.95644 -9.80127,6.84152 -0.0853,-0.17075 -0.16335,-0.33984 -0.23322,-0.50975 z"
           inkscape:connector-curvature="0"
           sodipodi:nodetypes="csccscc" />
        <path
           id="path1003"
           style="fill:url(#linearGradient1015);fill-opacity:1;stroke:none;stroke-width:1.25682044;stroke-linecap:butt;stroke-linejoin:miter;stroke-miterlimit:2.61299992;stroke-dasharray:none;stroke-opacity:1"
           d="m 545.38889,301.46497 c 1.95924,4.62841 9.36218,8.40389 16.48166,8.40389 7.11696,0 11.32392,-3.77548 9.36469,-8.40389 -0.0685,-0.16184 -0.14365,-0.32264 -0.22603,-0.48156 0.48924,3.87288 -3.52544,6.81333 -9.80847,6.81333 -6.84734,0 -14.068,-3.62766 -16.24843,-7.89414 0.0668,0.50828 0.2108,1.02968 0.43658,1.56237 z"
           inkscape:connector-curvature="0"
           sodipodi:nodetypes="csccscc" />
      </g>
      <path
         d="m 549.50303,273.38506 c 7.03136,-1.11661 14.93483,1.45108 17.59574,5.71492 2.6609,4.26385 -0.90185,8.65242 -7.93074,9.76864 -7.03137,1.11661 -14.93483,-1.45108 -17.59574,-5.71492 -2.66338,-4.26345 0.90185,-8.65242 7.93074,-9.76864 z m -0.98403,-1.94181 c 7.02889,-1.11622 14.93236,1.45146 17.59574,5.71491 2.66091,4.26385 -0.90185,8.65242 -7.93322,9.76903 -7.02888,1.11622 -14.93483,-1.45107 -17.59573,-5.71492 -2.66091,-4.26384 0.90184,-8.65241 7.93321,-9.76902 z"
         style="fill:none;stroke:#000000;stroke-width:0.514;stroke-linecap:butt;stroke-linejoin:miter;stroke-miterlimit:2.61299992;stroke-dasharray:none;stroke-opacity:1"
         id="path1007"
         inkscape:connector-curvature="0" />
      <path
         sodipodi:nodetypes="ccccc"
         d="m 565.24496,285.26283 24.10232,12.05248 c 3.47732,1.73885 7.57139,-6.55006 4.13848,-7.31452 l -27.05555,-6.02495 c -0.96365,-0.2146 -1.77529,0.99194 -1.18525,1.28699 z"
         style="fill:#020000;fill-opacity:1;stroke:none;stroke-width:1.25682044;stroke-linecap:butt;stroke-linejoin:miter;stroke-miterlimit:2.61299992;stroke-dasharray:none;stroke-opacity:1"
         id="path1009"
         inkscape:connector-curvature="0" />
    </g>
    <g
       id="g876"
       transform="translate(56.760646,-59.750465)">
      <path
         inkscape:connector-curvature="0"
         id="path388"
         style="fill:#aecff1;fill-opacity:0.74901961;fill-rule:evenodd;stroke:none;stroke-width:0.56835145;stroke-linecap:butt;stroke-linejoin:miter;stroke-miterlimit:2.61299992;stroke-dasharray:none;stroke-opacity:0.74901961"
         d="m 554.60398,273.10477 c 7.15343,0.54238 13.1877,4.0313 12.74766,7.66103 -0.43748,3.62929 -7.42936,7.30966 -14.5828,6.7673 -7.15601,-0.54196 -12.68732,-4.07922 -12.24728,-7.70893 0.44005,-3.62971 6.92898,-7.26177 14.08242,-6.7194 z"
         sodipodi:nodetypes="scccs" />
      <g
         id="g890"
         transform="rotate(-9.0234709,427.45105,316.49326)">
        <path
           sodipodi:nodetypes="csccscc"
           inkscape:connector-curvature="0"
           d="m 544.71909,299.39285 c -1.95924,-4.62841 2.24772,-8.40389 9.3672,-8.40389 7.11696,0 14.51991,3.77548 16.48165,8.40389 0.23019,0.54378 0.37526,1.07578 0.44127,1.59056 -2.25058,-4.40627 -9.3851,-7.92233 -16.25563,-7.92233 -6.29785,0 -10.31896,2.95644 -9.80127,6.84152 -0.0853,-0.17075 -0.16335,-0.33984 -0.23322,-0.50975 z"
           style="fill:url(#linearGradient874);fill-opacity:1;stroke:none;stroke-width:1.25682044;stroke-linecap:butt;stroke-linejoin:miter;stroke-miterlimit:2.61299992;stroke-dasharray:none;stroke-opacity:1"
           id="path833" />
        <path
           sodipodi:nodetypes="csccscc"
           inkscape:connector-curvature="0"
           d="m 545.38889,301.46497 c 1.95924,4.62841 9.36218,8.40389 16.48166,8.40389 7.11696,0 11.32392,-3.77548 9.36469,-8.40389 -0.0685,-0.16184 -0.14365,-0.32264 -0.22603,-0.48156 0.48924,3.87288 -3.52544,6.81333 -9.80847,6.81333 -6.84734,0 -14.068,-3.62766 -16.24843,-7.89414 0.0668,0.50828 0.2108,1.02968 0.43658,1.56237 z"
           style="fill:url(#linearGradient876);fill-opacity:1;stroke:none;stroke-width:1.25682044;stroke-linecap:butt;stroke-linejoin:miter;stroke-miterlimit:2.61299992;stroke-dasharray:none;stroke-opacity:1"
           id="path819" />
      </g>
      <path
         inkscape:connector-curvature="0"
         id="path372"
         style="fill:none;stroke:#000000;stroke-width:0.257;stroke-linecap:butt;stroke-linejoin:miter;stroke-miterlimit:2.61299992;stroke-dasharray:none;stroke-opacity:1"
         d="m 549.50303,273.38506 c 7.03136,-1.11661 14.93483,1.45108 17.59574,5.71492 2.6609,4.26385 -0.90185,8.65242 -7.93074,9.76864 -7.03137,1.11661 -14.93483,-1.45108 -17.59574,-5.71492 -2.66338,-4.26345 0.90185,-8.65242 7.93074,-9.76864 z m -0.98403,-1.94181 c 7.02889,-1.11622 14.93236,1.45146 17.59574,5.71491 2.66091,4.26385 -0.90185,8.65242 -7.93322,9.76903 -7.02888,1.11622 -14.93483,-1.45107 -17.59573,-5.71492 -2.66091,-4.26384 0.90184,-8.65241 7.93321,-9.76902 z" />
      <path
         inkscape:connector-curvature="0"
         id="path380"
         style="fill:#020000;fill-opacity:1;stroke:none;stroke-width:1.25682044;stroke-linecap:butt;stroke-linejoin:miter;stroke-miterlimit:2.61299992;stroke-dasharray:none;stroke-opacity:1"
         d="m 565.24496,285.26283 24.10232,12.05248 c 3.47732,1.73885 7.57139,-6.55006 4.13848,-7.31452 l -27.05555,-6.02495 c -0.96365,-0.2146 -1.77529,0.99194 -1.18525,1.28699 z"
         sodipodi:nodetypes="ccccc" />
    </g>
    <path
       id="path953"
       style="fill:#feff00;fill-opacity:1;fill-rule:nonzero;stroke:#000000;stroke-width:0.5;stroke-miterlimit:4;stroke-dasharray:none;stroke-opacity:1"
       d="m 602.6194,219.22202 -0.39337,-3.27787 1.63887,-0.19718 0.39347,3.27786 z m 39.34906,17.21306 -0.94874,-1.35011 2.70302,-1.89528 0.94625,1.3504 z m 4.05343,-2.84151 -0.94903,-1.35262 2.70303,-1.89527 0.94874,1.35012 z m -36.48278,25.59034 -0.58028,-0.82699 -1.61645,0.19459 -0.39337,-3.27786 1.64137,-0.19747 0.30385,2.54576 2.39917,-1.68344 0.94875,1.35012 z m 4.05564,-2.84431 -0.94873,-1.35012 2.70301,-1.89528 0.94625,1.35042 z m 4.05095,-2.84123 -0.94654,-1.35291 2.70054,-1.89498 0.94873,1.35012 z m 4.05564,-2.84431 -0.94903,-1.35261 2.70302,-1.89528 0.94654,1.3529 z m 4.05314,-2.84401 -0.94874,-1.35013 2.70274,-1.89776 0.94654,1.3529 z m 4.05315,-2.84402 -0.94874,-1.35012 2.70302,-1.89528 0.94625,1.35041 z m 4.05314,-2.84401 -0.94874,-1.35013 2.70303,-1.89527 0.94625,1.35041 z m 4.05344,-2.84153 -0.94902,-1.35261 2.70301,-1.89528 0.94874,1.35012 z m -33.52472,-5.3106 -0.39337,-3.27786 1.63923,-0.1942 0.39317,3.27536 z m -0.58986,-4.91429 -0.39337,-3.27787 1.63887,-0.19718 0.39337,3.27787 z m -0.59015,-4.91678 -0.39347,-3.27786 1.63887,-0.19717 0.39347,3.27785 z m 3.54267,29.49545 -0.39347,-3.27786 1.63888,-0.19718 0.39595,3.27757 z m -0.59015,-4.91679 -0.39318,-3.27536 1.63888,-0.19718 0.39308,3.27537 z m -0.58986,-4.91429 -0.39337,-3.27787 1.63887,-0.19718 0.39337,3.27786 z m -0.59015,-4.91678 -0.39595,-3.27757 1.64137,-0.19747 0.39346,3.27786 z"
       inkscape:connector-curvature="0" />
  </g>
</svg>
