<?xml version="1.0" encoding="UTF-8" standalone="no"?>
<!-- Created with Inkscape (http://www.inkscape.org/) -->

<svg
   xmlns:dc="http://purl.org/dc/elements/1.1/"
   xmlns:cc="http://creativecommons.org/ns#"
   xmlns:rdf="http://www.w3.org/1999/02/22-rdf-syntax-ns#"
   xmlns:svg="http://www.w3.org/2000/svg"
   xmlns="http://www.w3.org/2000/svg"
   xmlns:xlink="http://www.w3.org/1999/xlink"
   xmlns:sodipodi="http://sodipodi.sourceforge.net/DTD/sodipodi-0.dtd"
   xmlns:inkscape="http://www.inkscape.org/namespaces/inkscape"
   width="128"
   height="128"
   id="svg2"
   version="1.1"
   inkscape:version="0.92.2 2405546, 2018-03-11"
   sodipodi:docname="lens.svg"
   inkscape:export-filename="/home/alberto/Imágenes/svg/lens.png"
   inkscape:export-xdpi="72.130074"
   inkscape:export-ydpi="72.130074">
  <defs
     id="defs4">
    <linearGradient
       inkscape:collect="always"
       id="linearGradient3927">
      <stop
         style="stop-color:#ffffff;stop-opacity:1;"
         offset="0"
         id="stop3929" />
      <stop
         id="stop3939"
         offset="0.90395689"
         style="stop-color:#ffffff;stop-opacity:1" />
      <stop
         style="stop-color:#ffffff;stop-opacity:0;"
         offset="1"
         id="stop3931" />
    </linearGradient>
    <linearGradient
       id="linearGradient3926">
      <stop
         id="stop3928"
         offset="0"
         style="stop-color:#ffffff;stop-opacity:1;" />
      <stop
         style="stop-color:#ffffff;stop-opacity:0;"
         offset="0.61235034"
         id="stop3930" />
      <stop
         id="stop3932"
         offset="1"
         style="stop-color:#ffffff;stop-opacity:1;" />
    </linearGradient>
    <linearGradient
       id="linearGradient3908">
      <stop
         style="stop-color:#ffffff;stop-opacity:1;"
         offset="0"
         id="stop3910" />
      <stop
         id="stop3924"
         offset="0.90625"
         style="stop-color:#ffffff;stop-opacity:0;" />
      <stop
         style="stop-color:#ffffff;stop-opacity:1;"
         offset="1"
         id="stop3912" />
    </linearGradient>
    <linearGradient
       id="linearGradient3788">
      <stop
         id="stop3790"
         offset="0"
         style="stop-color:#003380;stop-opacity:1" />
      <stop
         id="stop3792"
         offset="1"
         style="stop-color:#0066ff;stop-opacity:1" />
    </linearGradient>
    <inkscape:perspective
       sodipodi:type="inkscape:persp3d"
       inkscape:vp_x="0 : 526.18109 : 1"
       inkscape:vp_y="0 : 1000 : 0"
       inkscape:vp_z="744.09448 : 526.18109 : 1"
       inkscape:persp3d-origin="372.04724 : 350.78739 : 1"
       id="perspective10" />
    <radialGradient
       inkscape:collect="always"
       xlink:href="#linearGradient3788"
       id="radialGradient3786"
       gradientUnits="userSpaceOnUse"
       gradientTransform="matrix(-0.66724125,1.3468096,-2.172941,-1.0765288,1325.6692,336.88481)"
       cx="316.30649"
       cy="367.38687"
       fx="316.30649"
       fy="367.38687"
       r="257.14285" />
    <radialGradient
       inkscape:collect="always"
       xlink:href="#linearGradient3886"
       id="radialGradient5346"
       cx="754.29327"
       cy="320.97113"
       fx="754.29327"
       fy="320.97113"
       r="214.44299"
       gradientTransform="matrix(1,1.3998017e-8,-1.4557157e-8,1.033253,4.6723267e-6,-10.673267)"
       gradientUnits="userSpaceOnUse" />
    <linearGradient
       id="linearGradient3886">
      <stop
         style="stop-color:#003380;stop-opacity:1;"
         offset="0"
         id="stop3888" />
      <stop
         style="stop-color:#0066ff;stop-opacity:0"
         offset="1"
         id="stop3890" />
    </linearGradient>
    <radialGradient
       r="214.44299"
       fy="320.97113"
       fx="754.29327"
       cy="320.97113"
       cx="754.29327"
       gradientTransform="matrix(1,1.3998017e-8,-1.4557157e-8,1.033253,4.6723267e-6,-10.673267)"
       gradientUnits="userSpaceOnUse"
       id="radialGradient5363"
       xlink:href="#linearGradient3886"
       inkscape:collect="always" />
    <radialGradient
       inkscape:collect="always"
       xlink:href="#linearGradient3927"
       id="radialGradient4018"
       gradientUnits="userSpaceOnUse"
       gradientTransform="matrix(1,0,0,0.99991696,0,0.04421612)"
       cx="462.91895"
       cy="532.47711"
       fx="462.91895"
       fy="532.47711"
       r="353.36505" />
    <radialGradient
       inkscape:collect="always"
       xlink:href="#linearGradient3927"
       id="radialGradient3923"
       gradientUnits="userSpaceOnUse"
       gradientTransform="matrix(0.18111582,0,0,0.18111582,382.64894,454.95577)"
       cx="462.91895"
       cy="532.47711"
       fx="462.91895"
       fy="532.47711"
       r="353.36505" />
    <linearGradient
       id="g"
       x1="438"
       x2="706.84003"
       gradientUnits="userSpaceOnUse">
      <stop
         stop-color="#fff"
         offset="0"
         id="stop40" />
      <stop
         stop-color="#646464"
         offset=".1733"
         id="stop42" />
      <stop
         stop-color="#fff"
         offset=".4087"
         id="stop44" />
      <stop
         stop-color="#191919"
         offset=".5919"
         id="stop46" />
      <stop
         stop-color="#fff"
         offset=".8851"
         id="stop48" />
      <stop
         stop-color="#b3b3b3"
         offset="1"
         id="stop50" />
    </linearGradient>
    <linearGradient
       id="h"
       x1="176.3"
       x2="554.34003"
       gradientUnits="userSpaceOnUse">
      <stop
         stop-color="#232323"
         offset="0"
         id="stop35" />
      <stop
         stop-color="#393939"
         offset="1"
         id="stop37" />
    </linearGradient>
    <linearGradient
       id="p"
       x1="340.16"
       x2="371.31"
       gradientUnits="userSpaceOnUse"
       xlink:href="#b" />
    <linearGradient
       id="b">
      <stop
         stop-opacity="0"
         offset="0"
         id="stop20" />
      <stop
         offset="1"
         id="stop22" />
    </linearGradient>
    <linearGradient
       id="o"
       x1="249.83"
       x2="272.39001"
       gradientUnits="userSpaceOnUse"
       xlink:href="#d" />
    <linearGradient
       id="d">
      <stop
         offset="0"
         id="stop15" />
      <stop
         stop-opacity="0"
         offset="1"
         id="stop17" />
    </linearGradient>
    <linearGradient
       id="q"
       x1="440.29999"
       x2="468.35001"
       gradientUnits="userSpaceOnUse"
       xlink:href="#b" />
    <linearGradient
       id="r"
       x1="520.07001"
       x2="533.38"
       gradientUnits="userSpaceOnUse"
       xlink:href="#b" />
    <linearGradient
       id="n"
       x1="191.44"
       x2="203.52"
       gradientUnits="userSpaceOnUse"
       xlink:href="#d" />
    <linearGradient
       id="k"
       x1="340.16"
       x2="371.31"
       gradientUnits="userSpaceOnUse"
       xlink:href="#a" />
    <linearGradient
       id="a">
      <stop
         stop-color="#fff"
         offset="0"
         id="stop10" />
      <stop
         stop-color="#fff"
         stop-opacity="0"
         offset="1"
         id="stop12" />
    </linearGradient>
    <linearGradient
       id="j"
       x1="249.83"
       x2="272.39001"
       gradientUnits="userSpaceOnUse"
       xlink:href="#c" />
    <linearGradient
       id="c">
      <stop
         stop-color="#fff"
         stop-opacity="0"
         offset="0"
         id="stop5" />
      <stop
         stop-color="#fff"
         offset="1"
         id="stop7" />
    </linearGradient>
    <linearGradient
       id="l"
       x1="440.29999"
       x2="468.35001"
       gradientUnits="userSpaceOnUse"
       xlink:href="#a" />
    <linearGradient
       id="m"
       x1="520.07001"
       x2="533.38"
       gradientUnits="userSpaceOnUse"
       xlink:href="#a" />
    <linearGradient
       id="i"
       x1="191.44"
       x2="203.52"
       gradientUnits="userSpaceOnUse"
       xlink:href="#c" />
    <linearGradient
       id="s"
       x2="0"
       y1="266.5"
       y2="368.59"
       gradientUnits="userSpaceOnUse">
      <stop
         stop-color="#d8d8d8"
         offset="0"
         id="stop30" />
      <stop
         stop-color="#d8d8d8"
         stop-opacity="0"
         offset="1"
         id="stop32" />
    </linearGradient>
    <filter
       inkscape:collect="always"
       style="color-interpolation-filters:sRGB"
       id="filter1018"
       x="-0.0071745734"
       width="1.0143491"
       y="-0.036649428"
       height="1.0732989">
      <feGaussianBlur
         inkscape:collect="always"
         stdDeviation="0.69636965"
         id="feGaussianBlur1020" />
    </filter>
    <linearGradient
       id="t"
       x2="0"
       y1="286.32001"
       y2="307.39999"
       gradientUnits="userSpaceOnUse"
       xlink:href="#linearGradient1012" />
    <linearGradient
       id="linearGradient1012">
      <stop
         id="stop1008"
         offset="0"
         stop-color="#fff"
         style="stop-color:#ffafff;stop-opacity:1" />
      <stop
         id="stop1010"
         offset="1"
         stop-opacity="0"
         stop-color="#fff" />
    </linearGradient>
    <filter
       inkscape:collect="always"
       style="color-interpolation-filters:sRGB"
       id="filter1026"
       x="-0.016031552"
       width="1.0320631"
       y="-0.047718253"
       height="1.0954365">
      <feGaussianBlur
         inkscape:collect="always"
         stdDeviation="0.8054145"
         id="feGaussianBlur1028" />
    </filter>
    <radialGradient
       id="f"
       cx="212.89"
       cy="409.39999"
       r="92.176003"
       fy="324.79999"
       gradientTransform="matrix(0.23884,-0.00719,0.01027,0.3682,308.46,187.65)"
       gradientUnits="userSpaceOnUse"
       xlink:href="#linearGradient1006" />
    <linearGradient
       id="linearGradient1006">
      <stop
         id="stop1002"
         offset="0"
         stop-color="#fff" />
      <stop
         id="stop1004"
         offset="1"
         stop-opacity="0"
         stop-color="#fff"
         style="stop-color:#00ffff;stop-opacity:0" />
    </linearGradient>
    <linearGradient
       id="u"
       x1="284.17999"
       x2="530.08002"
       gradientUnits="userSpaceOnUse">
      <stop
         stop-color="#333"
         offset="0"
         id="stop25" />
      <stop
         offset="1"
         id="stop27" />
    </linearGradient>
    <linearGradient
       inkscape:collect="always"
       xlink:href="#a"
       id="linearGradient1342"
       x1="513.43896"
       y1="534.51782"
       x2="438.41052"
       y2="535.21259"
       gradientUnits="userSpaceOnUse" />
    <linearGradient
       inkscape:collect="always"
       xlink:href="#d"
       id="linearGradient930"
       x1="483.98795"
       y1="539.3808"
       x2="431.19016"
       y2="537.99139"
       gradientUnits="userSpaceOnUse" />
  </defs>
  <sodipodi:namedview
     id="base"
     pagecolor="#ffffff"
     bordercolor="#666666"
     borderopacity="1.0"
     inkscape:pageopacity="0.0"
     inkscape:pageshadow="2"
     inkscape:zoom="3.0674895"
     inkscape:cx="100.81461"
     inkscape:cy="84.657009"
     inkscape:document-units="px"
     inkscape:current-layer="g3925"
     showgrid="false"
     showguides="true"
     inkscape:guide-bbox="true"
     inkscape:window-width="1440"
     inkscape:window-height="871"
     inkscape:window-x="0"
     inkscape:window-y="0"
     inkscape:window-maximized="1"
     inkscape:snap-global="true"
     inkscape:snap-bbox="true"
     inkscape:bbox-paths="true"
     inkscape:bbox-nodes="true"
     inkscape:snap-bbox-edge-midpoints="true"
     inkscape:snap-bbox-midpoints="true"
     inkscape:object-paths="true"
     inkscape:snap-intersection-paths="true"
     inkscape:object-nodes="true"
     inkscape:snap-smooth-nodes="true"
     inkscape:snap-midpoints="true"
     fit-margin-top="0"
     fit-margin-left="0"
     fit-margin-right="0"
     fit-margin-bottom="0"
     inkscape:snap-page="true" />
  <metadata
     id="metadata7">
    <rdf:RDF>
      <cc:Work
         rdf:about="">
        <dc:format>image/svg+xml</dc:format>
        <dc:type
           rdf:resource="http://purl.org/dc/dcmitype/StillImage" />
        <dc:title></dc:title>
      </cc:Work>
    </rdf:RDF>
  </metadata>
  <g
     inkscape:label="Capa 1"
     inkscape:groupmode="layer"
     id="layer1"
     transform="translate(-398.91894,-468.47713)">
    <g
       id="g3925">
      <rect
         ry="0"
         rx="0"
         y="468.47711"
         x="398.91895"
         height="128.00002"
         width="127.99999"
         id="rect3840"
         style="opacity:0.25;fill:#0029ff;fill-opacity:1;stroke:none" />
      <path
         style="color:#000000;font-style:normal;font-variant:normal;font-weight:normal;font-stretch:normal;font-size:medium;line-height:normal;font-family:sans-serif;font-variant-ligatures:normal;font-variant-position:normal;font-variant-caps:normal;font-variant-numeric:normal;font-variant-alternates:normal;font-feature-settings:normal;text-indent:0;text-align:start;text-decoration:none;text-decoration-line:none;text-decoration-style:solid;text-decoration-color:#000000;letter-spacing:normal;word-spacing:normal;text-transform:none;writing-mode:lr-tb;direction:ltr;text-orientation:mixed;dominant-baseline:auto;baseline-shift:baseline;text-anchor:start;white-space:normal;shape-padding:0;clip-rule:nonzero;display:inline;overflow:visible;visibility:visible;opacity:1;isolation:auto;mix-blend-mode:normal;color-interpolation:sRGB;color-interpolation-filters:linearRGB;solid-color:#000000;solid-opacity:1;vector-effect:none;fill:#ffffff;fill-opacity:1;fill-rule:nonzero;stroke:none;stroke-width:5;stroke-linecap:butt;stroke-linejoin:miter;stroke-miterlimit:4;stroke-dasharray:none;stroke-dashoffset:0;stroke-opacity:1;color-rendering:auto;image-rendering:auto;shape-rendering:auto;text-rendering:auto;enable-background:accumulate"
         d="m 468.37988,491.09822 -34.17188,0.0723 c -0.0631,-0.0148 -0.12962,-0.043 -0.5,-0.043 -0.23049,0 -0.39043,0.0256 -0.56836,0.0449 h -0.34961 l 0.125,0.004 c -1.21369,-0.061 -2.44356,0.49555 -3.5332,1.23047 -0.14507,-0.0146 -0.25134,-0.0352 -0.44922,-0.0352 -0.3133,0 -0.21659,0.009 -0.23437,0.0176 -0.0743,-0.009 -0.0499,-0.0176 -0.26172,-0.0176 -0.31212,0 -0.33526,0.0208 -0.4375,0.0391 -0.15568,-0.0159 -0.27924,-0.0391 -0.47656,-0.0391 -0.33292,0 -0.42029,0.0282 -0.53907,0.0488 l -9.02343,0.0332 c -0.24288,-0.0334 -0.46832,-0.0801 -0.74805,-0.0801 -0.21619,0 -0.10891,0.003 -0.13477,0.008 0.0512,-0.004 0.23945,-0.008 -0.11132,-0.008 -0.18579,0 -0.32046,0.0239 -0.47852,0.0391 -0.0868,-0.0179 -0.0992,-0.0391 -0.43555,-0.0391 -0.28886,0 -0.50574,0.0489 -0.74609,0.084 h -0.25781 l -0.26172,0.0566 c -0.39958,0.0866 -0.46158,0.12157 -0.20508,0.0566 h -0.002 c -0.16663,0.0423 -0.38898,0.10228 -0.6543,0.20117 v -0.002 c -0.17271,0.0643 -0.2305,0.0957 -0.1875,0.0781 h -0.002 c -0.183,0.0747 -0.41881,0.17424 -0.6875,0.32032 -0.262,0.14223 -0.2921,0.16977 -0.10938,0.0664 h -0.002 c -0.19892,0.11269 -0.42909,0.25178 -0.67383,0.42578 -0.21668,0.1543 -0.25448,0.19209 -0.10742,0.084 h -0.002 c -0.75573,0.55609 -1.32665,1.39982 -1.93946,2.17773 l -0.88412,0.54948 -0.77799,0.37048 c -0.35235,0.20126 -0.71663,0.39657 -1,0.65039 -0.81562,0.73058 -1.42391,1.61714 -1.97461,2.63672 -1.1014,2.03918 -1.95673,4.66601 -2.68359,7.84766 -1.45372,6.3633 -2.31641,14.91558 -2.31641,24.36914 0,9.21786 0.82159,17.57937 2.20899,23.88672 0.69369,3.15367 1.51334,5.78823 2.54687,7.85937 0.40923,0.82007 0.91435,1.5366 1.44922,2.21485 l 1.45998,1.43327 1.31541,1.01787 c 0.0386,0.0575 0.065,0.099 0.1211,0.17773 0.14721,0.20669 0.2783,0.37256 0.3789,0.50196 h 0.002 c 0.0358,0.0461 0.11018,0.15085 0.24023,0.30859 0.15983,0.19402 0.29855,0.34304 0.40039,0.45508 0.008,0.009 0.0816,0.10171 0.24219,0.26758 0.19202,0.19848 0.34872,0.33703 0.44531,0.42578 -1.1e-4,-10e-5 0.0791,0.0836 0.25781,0.23633 0.22703,0.19407 0.44239,0.35281 0.63086,0.48632 v 0.002 h 0.002 c -0.18281,-0.12937 -0.15074,-0.0956 0.0996,0.0762 0.26118,0.17905 0.52828,0.3363 0.79493,0.47461 v 0.002 h 0.002 c -0.34703,-0.17952 -0.29686,-0.15007 0.0215,0.0137 0.57219,0.29395 1.19669,0.5161 1.85938,0.62891 l 0.20898,0.0352 h 0.22071 c 0.18191,0.0201 0.34669,0.0469 0.5664,0.0469 0.33267,0 0.34966,-0.0211 0.43946,-0.0391 0.15638,0.0152 0.287,0.0391 0.47461,0.0391 0.31647,0 0.1188,-0.003 0.10351,-0.008 0.0126,0.005 -0.0916,0.008 0.14258,0.008 0.55421,0 0.69534,-0.0537 0.41406,-0.0352 0.0794,-0.005 0.0739,-0.007 0.11914,-0.0117 h 0.29297 8.89844 c 0.19666,0.0181 0.40152,0.0469 0.58594,0.0469 0.2021,0 0.30795,-0.0203 0.44921,-0.0352 0.14772,0.0143 0.26894,0.0352 0.46485,0.0352 0.20976,0 0.17883,-0.006 0.24023,-0.0137 0.0514,0.007 0.0313,0.0137 0.25586,0.0137 0.21529,0 0.40708,-0.0278 0.60547,-0.0488 0.25905,0.1438 0.53703,0.29737 0.9043,0.44922 0.35813,0.14807 0.81584,0.3157 1.37304,0.4668 l 0.32618,0.0898 1.14257,-0.006 c 0.0799,10e-4 0.20766,0.004 0.38282,-0.002 l -0.0703,0.002 33.79493,-0.11914 c 0.3135,0.0493 0.61772,0.11719 0.95312,0.11719 1.55098,0 2.96899,-0.63938 4.1875,-1.5332 0.70787,-0.34172 1.27401,-0.89665 1.86914,-1.40821 h 22.19336 c 0.32057,0.0463 0.63674,0.10743 0.97266,0.10743 0.2219,0 0.205,-0.008 0.23633,-0.0137 0.0829,0.006 0.13376,0.0137 0.2832,0.0137 0.74604,0 1.41641,-0.27402 2.10156,-0.49414 h 1.0957 c 0.33276,0.12268 0.66644,0.24804 0.94532,0.24804 h 1.84375 1.44696 0.5293 l 0.33008,-0.0918 c 0.11487,-0.0322 0.26553,-0.0925 0.40039,-0.13868 h 0.10547 l 0.51172,-0.24414 c 0.14729,-0.0704 0.30213,-0.15136 0.46679,-0.24609 l 1.63281,-0.93945 c 0.0441,10e-4 0.0497,0.008 0.0996,0.008 0.53316,0 0.99339,-0.24939 1.48829,-0.40625 0.34685,-0.10994 0.73221,-0.11601 1.04296,-0.28516 0.73912,-0.354 1.44989,-0.84095 2.00977,-1.55469 l 0.11719,-0.14843 0.0918,-0.16407 0.0655,-0.0828 0.0817,-0.16671 0.12744,-0.17851 0.16432,-0.26893 0.24858,-0.47881 c 0.96409,-1.43234 1.78215,-3.15852 2.47071,-5.17382 0.013,1.4e-4 0.0221,0.006 0.0352,0.006 1.1528,0 2.15099,-0.5597 2.82032,-1.18554 0.66932,-0.62585 1.1332,-1.34505 1.54882,-2.14844 0.83124,-1.60678 1.44885,-3.6092 1.97657,-6.02148 1.05542,-4.82458 1.67383,-11.25745 1.67382,-18.3711 0,-7.11364 -0.61835,-13.54591 -1.67382,-18.36914 -0.52774,-2.41161 -1.14521,-4.41321 -1.97657,-6.01953 -0.41567,-0.80316 -0.87943,-1.52087 -1.54882,-2.14648 -0.66075,-0.61754 -1.64576,-1.16158 -2.7793,-1.17579 -0.88966,-3.11317 -1.97688,-5.42444 -3.56445,-6.98828 -1.29146,-1.27214 -3.00204,-1.72453 -4.65039,-1.74023 -0.67567,-0.56186 -1.37381,-1.10748 -2.24415,-1.39258 -0.40011,-0.15365 -0.83539,-0.30403 -1.34179,-0.39453 l -0.25586,-0.0469 -5.28906,0.16407 c -0.67982,-0.2211 -1.38345,-0.41797 -2.14844,-0.41797 -0.32641,0 -0.26392,0.009 -0.24609,0.0156 -0.0665,-0.008 -0.06,-0.0156 -0.27344,-0.0156 -0.36869,0 -0.43097,0.0244 -0.42969,0.0312 -0.0227,-5.2e-4 -0.0376,-0.002 -0.084,-0.002 h -0.0391 l -22.61132,-0.16797 c -0.22746,-0.159 -0.43997,-0.30242 -0.6875,-0.47852 l -0.0137,-0.01 -0.0137,-0.01 c -0.0622,-0.043 -0.19903,-0.13686 -0.34765,-0.23242 -0.53066,-0.37104 -1.12363,-0.77868 -1.83594,-1.14063 -0.27318,-0.14413 -0.54138,-0.26367 -0.79492,-0.36133 l -0.0156,-0.006 c 0.0202,0.007 0.0284,0.0104 -0.0605,-0.0234 l -0.0117,-0.006 -0.0137,-0.004 c -0.22986,-0.0846 -0.43911,-0.14403 -0.6289,-0.19336 -0.41125,-0.11559 -0.9066,-0.22916 -1.48828,-0.2539 l -0.0547,-0.002 z m 43.30463,77.48642 c -0.14628,0.0504 -0.31448,0.10743 -0.31445,0.10742 h 0.006 c 3e-5,0 0.1677,-0.058 0.30859,-0.10742 z"
         id="path1181"
         inkscape:connector-curvature="0"
         sodipodi:nodetypes="ccsccccscscsccscscsccccccccccccccccccccssccccccccccccccccccccccccscscsccccscscsccccccccscccscsccscccccccccscccccccccccscsccccccccccccscscsccccccccccccccccccscc" />
      <g
         transform="matrix(0,-0.20558408,0.20558408,0,353.70774,607.58854)"
         id="g989">
        <path
           style="fill:#0c0c0c"
           inkscape:connector-curvature="0"
           d="m 365.32,693.41 c -67.762,0 -122.71,12.016 -122.71,26.85 0,0.69533 0.13324,1.3887 0.37031,2.0707 v 72.509 c -0.23707,0.68204 -0.37031,1.3754 -0.37031,2.0707 0,14.834 54.943,26.85 122.71,26.85 67.767,0 122.68,-12.016 122.68,-26.85 0,-0.60628 -0.0839,-1.2134 -0.26451,-1.8097 v -73.031 C 487.91613,721.47342 488,720.8663 488,720.26 488,705.426 433.084,693.41 365.32,693.41 Z"
           id="path67" />
        <path
           style="fill:#171717"
           inkscape:connector-curvature="0"
           d="m 365.32,678.73 c -67.762,0 -122.71,12.016 -122.71,26.85 0,0.69531 0.13324,1.3887 0.37031,2.0707 v 72.509 c -0.23707,0.68205 -0.37031,1.3754 -0.37031,2.0707 0,14.834 54.943,26.85 122.71,26.85 67.767,0 122.68,-12.016 122.68,-26.85 0,-0.60627 -0.0839,-1.2134 -0.26451,-1.8097 v -73.032 C 487.91613,706.79245 488,706.1853 488,705.579 c 0,-14.834 -54.916,-26.85 -122.68,-26.85 z"
           id="path69" />
        <path
           style="fill:#1a1a1a"
           inkscape:connector-curvature="0"
           d="m 365.32,586.32 c -91.675,0 -166.01,19.963 -166.01,44.607 0,1.1552 0.18025,2.3071 0.50097,3.4402 v 120.47 c -0.32072,1.1331 -0.50097,2.285 -0.50097,3.4402 0,24.644 74.331,44.607 166.01,44.607 91.679,0 165.97,-19.963 165.97,-44.607 0,-1.0072 -0.11333,-2.016 -0.35784,-3.0066 v -121.33 c 0.24441,-0.99061 0.35784,-1.9993 0.35784,-3.0066 0,-24.644 -74.295,-44.607 -165.97,-44.607 z"
           id="path71" />
        <path
           style="fill:#272727"
           inkscape:connector-curvature="0"
           d="m 365.32,583.87 c -91.675,0 -166.01,19.963 -166.01,44.607 0,1.1552 0.18025,2.3071 0.50097,3.4402 v 120.47 c -0.32072,1.1331 -0.50097,2.285 -0.50097,3.4402 0,24.644 74.331,44.607 166.01,44.607 91.679,0 165.97,-19.963 165.97,-44.607 0,-1.0072 -0.11333,-2.016 -0.35784,-3.0066 v -121.33 c 0.24441,-0.9906 0.35784,-1.9993 0.35784,-3.0066 0,-24.644 -74.295,-44.607 -165.97,-44.607 z"
           id="path73" />
        <path
           style="fill:#161616"
           inkscape:connector-curvature="0"
           d="m 365.33,539.11 c -95.745,0 -173.38,23.025 -173.38,51.45 0,1.3324 0.18825,2.661 0.52322,3.9679 v 138.94 c -0.33497,1.3069 -0.52322,2.6355 -0.52322,3.9679 0,28.424 77.631,51.45 173.38,51.45 95.749,0 173.34,-23.025 173.34,-51.45 0,-1.1617 -0.11839,-2.3252 -0.37373,-3.4678 v -139.94 c 0.25525,-1.1426 0.37373,-2.306 0.37373,-3.4678 0,-28.424 -77.594,-51.45 -173.34,-51.45 z"
           id="path75" />
        <path
           style="fill:#3b3b3b"
           inkscape:connector-curvature="0"
           d="m 365.33,536.66 c -95.745,0 -173.38,23.025 -173.38,51.45 0,1.3324 0.18825,2.661 0.52322,3.9679 v 138.94 c -0.33497,1.3069 -0.52322,2.6355 -0.52322,3.9679 0,28.424 77.631,51.45 173.38,51.45 95.749,0 173.34,-23.025 173.34,-51.45 0,-1.1617 -0.11839,-2.3252 -0.37373,-3.4678 v -139.94 c 0.25525,-1.1426 0.37373,-2.306 0.37373,-3.4678 0,-28.424 -77.594,-51.45 -173.34,-51.45 z"
           id="path77" />
        <g
           transform="matrix(1.2897,0,0,1.2239,-372.92,-68.581)"
           id="g83">
          <path
             style="opacity:0.26720048"
             inkscape:connector-curvature="0"
             d="m 437.73562,645.8125 c -0.16384,0 -0.27967,0.22019 -0.27967,0.5 v 13.8125 c 0.16097,0.60575 0.34866,1.21434 0.59041,1.8125 v -15.625 c 0,-0.27981 -0.14688,-0.5 -0.31074,-0.5 z m 0.90115,1.0625 c -0.16385,0 -0.31074,0.22019 -0.31074,0.5 v 15.1875 c 0.17848,0.39357 0.3775,0.79753 0.5904,1.1875 v -16.375 c 0,-0.27981 -0.11581,-0.5 -0.27966,-0.5 z m 265.33979,0.40625 c -0.11062,0.075 -0.21752,0.25889 -0.21752,0.46875 v 12.59375 c 0.35036,-1.24136 0.55933,-2.4799 0.55933,-3.75 0,-0.94922 -0.11387,-1.91019 -0.31074,-2.84375 v -6.46875 c -0.0115,0.005 -0.0201,-0.008 -0.0311,0 z m -264.28329,0.9375 c -0.16383,0 -0.31073,0.22019 -0.31073,0.5 v 15.84375 c 0.17485,0.28659 0.36607,0.55927 0.55933,0.84375 0.0291,-0.0847 0.0311,-0.17727 0.0311,-0.28125 v -16.40625 c 0,-0.27981 -0.1158,-0.5 -0.27967,-0.5 z m 263.50644,0.0937 c -0.16383,0 -0.31074,0.22019 -0.31074,0.5 v 13.875 c 0.22684,-0.48953 0.41766,-0.97389 0.5904,-1.46875 v -12.40625 c 0,-0.27981 -0.11582,-0.5 -0.27966,-0.5 z m -262.54315,1.25 c -0.16386,0 -0.27966,0.22019 -0.27966,0.5 v 15.96875 c 0.16689,0.22829 0.34961,0.46065 0.52826,0.6875 0.031,-0.0769 0.0621,-0.1511 0.0621,-0.25 v -16.40625 c 0,-0.27981 -0.14689,-0.5 -0.31074,-0.5 z m 261.48664,0.0937 c -0.16384,0 -0.31074,0.22019 -0.31074,0.5 v 14.5 c 0.22185,-0.35923 0.42888,-0.73131 0.62147,-1.09375 v -13.40625 c 0,-0.27981 -0.14689,-0.5 -0.31073,-0.5 z M 701.17991,651 c -0.16384,0 -0.31074,0.22019 -0.31074,0.5 v 14.59375 c 0.22585,-0.30667 0.41709,-0.59704 0.62147,-0.90625 V 651.5 c 0,-0.27981 -0.14688,-0.5 -0.31073,-0.5 z m -259.52898,1.15625 c -0.16385,0 -0.31074,0.22019 -0.31074,0.5 v 14.625 c 0.18611,0.22326 0.39296,0.43446 0.5904,0.65625 v -15.28125 c 0,-0.27981 -0.11581,-0.5 -0.27966,-0.5 z m 1.11866,1.0625 c -0.16384,0 -0.31074,0.22019 -0.31074,0.5 v 14.8125 c 0.19517,0.20754 0.38536,0.41881 0.5904,0.625 v -15.4375 c 0,-0.27981 -0.1158,-0.5 -0.27966,-0.5 z m 257.44702,0.34375 c -0.16383,0 -0.31073,0.25144 -0.31073,0.53125 v 13.21875 c 0.20448,-0.24449 0.39964,-0.50378 0.5904,-0.75 v -12.46875 c 0,-0.27981 -0.11581,-0.53125 -0.27967,-0.53125 z m -256.23514,0.46875 c -0.20866,0 -0.37289,0.22019 -0.37289,0.5 v 15.15625 c 0.24143,0.23173 0.49195,0.45757 0.74577,0.6875 v -15.84375 c 0,-0.27981 -0.16424,-0.5 -0.37288,-0.5 z m 255.08542,0.625 c -0.16387,0 -0.31074,0.22019 -0.31074,0.5 V 668.625 c 0.20157,-0.21274 0.39928,-0.44211 0.5904,-0.65625 v -12.8125 c 0,-0.27981 -0.11584,-0.5 -0.27966,-0.5 z m -261.98382,0.28125 c -0.0686,0.54096 -0.0932,1.11192 -0.0932,1.65625 0,0.54433 0.0293,1.05947 0.0932,1.59375 z m 8.35887,0.5 c -0.20865,0 -0.40396,0.25144 -0.40396,0.53125 v 15 c 0.25332,0.21857 0.51238,0.43939 0.77685,0.65625 v -15.65625 c 0,-0.27981 -0.16424,-0.53125 -0.37289,-0.53125 z m 252.41306,0 c -0.20864,0 -0.37288,0.25144 -0.37288,0.53125 V 669.875 c 0.25778,-0.24344 0.50183,-0.47335 0.74577,-0.71875 v -13.1875 c 0,-0.27981 -0.16423,-0.53125 -0.37289,-0.53125 z m -250.39326,1.4375 c -0.20866,0 -0.37288,0.22019 -0.37288,0.5 v 15.25 c 0.24377,0.18539 0.49384,0.37845 0.74577,0.5625 V 657.375 c 0,-0.27981 -0.16424,-0.5 -0.37289,-0.5 z m 248.96386,0 c -0.20865,0 -0.40396,0.22019 -0.40396,0.5 v 13.8125 l 0.74578,-0.65625 V 657.375 c 0,-0.27981 -0.13316,-0.5 -0.34182,-0.5 z m -246.54009,1.34375 c -0.20865,0 -0.37289,0.22019 -0.37289,0.5 v 15.625 c 0.25508,0.17172 0.48356,0.36081 0.74577,0.53125 v -16.15625 c 0,-0.27981 -0.16423,-0.5 -0.37288,-0.5 z m 244.48922,0.0937 c -0.20865,0 -0.37289,0.22019 -0.37289,0.5 v 13.96875 c 0.25539,-0.19203 0.49923,-0.36903 0.74577,-0.5625 v -13.40625 c 0,-0.27981 -0.16422,-0.5 -0.37288,-0.5 z m -2.42376,1.34375 c -0.20865,0 -0.37289,0.22019 -0.37289,0.5 v 14.34375 c 0.25894,-0.17258 0.49411,-0.35739 0.74578,-0.53125 v -13.8125 c 0,-0.27981 -0.16422,-0.5 -0.37289,-0.5 z M 451.96745,659.75 c -0.20865,0 -0.34181,0.22019 -0.34181,0.5 v 15.46875 c 0.24555,0.15082 0.49462,0.28774 0.74577,0.4375 V 660.25 c 0,-0.27981 -0.1953,-0.5 -0.40396,-0.5 z m 2.70344,1.0625 c -0.20866,0 -0.40397,0.22019 -0.40397,0.5 V 677.25 c 0.25296,0.14059 0.51891,0.26667 0.77685,0.40625 V 661.3125 c 0,-0.27981 -0.16425,-0.5 -0.37288,-0.5 z m 235.16705,0.34375 c -0.20866,0 -0.37288,0.22019 -0.37288,0.5 v 14.1875 c 0.25172,-0.15334 0.49989,-0.31432 0.74577,-0.46875 v -13.71875 c 0,-0.27981 -0.16424,-0.5 -0.37289,-0.5 z m -232.77437,0.90625 c -0.25345,0 -0.43503,0.22019 -0.43503,0.5 V 678.5 l 1.21187,0.625 c 0.0162,-0.0519 0.0311,-0.0976 0.0311,-0.15625 V 662.5625 c 0,-0.27981 -0.21264,-0.5 -0.46611,-0.5 h -0.34181 z m 230.1331,0.1875 c -0.20866,0 -0.40396,0.22019 -0.40396,0.5 v 14.625 c 0.2465,-0.13589 0.50397,-0.26942 0.74577,-0.40625 V 662.75 c 0,-0.27981 -0.13317,-0.5 -0.34181,-0.5 z m -227.42968,1.0625 c -0.25345,0 -0.49717,0.22019 -0.49717,0.5 v 16 c 0.40051,0.18957 0.80188,0.37511 1.21188,0.5625 0.0166,-0.0525 0.0621,-0.0968 0.0621,-0.15625 V 663.8125 c 0,-0.27981 -0.21264,-0.5 -0.46611,-0.5 h -0.31074 z m 224.6641,0.1875 c -0.25346,0 -0.46611,0.22019 -0.46611,0.5 v 14.875 l 1.24296,-0.625 V 664 c 0,-0.27981 -0.21265,-0.5 -0.46611,-0.5 z m -2.67235,1.25 c -0.25344,0 -0.46612,0.22019 -0.46612,0.5 v 14.9375 c 0.42884,-0.19861 0.82473,-0.42398 1.24296,-0.625 V 665.25 c 0,-0.27981 -0.18157,-0.5 -0.43503,-0.5 z m -218.85328,0.53125 c -0.25346,0 -0.46611,0.22019 -0.46611,0.5 V 681.25 l 1.27403,0.53125 v -16 c 0,-0.27981 -0.24373,-0.5 -0.49719,-0.5 z m 3.01416,0.96875 c -0.25345,0 -0.49718,0.22019 -0.49718,0.5 v 15.71875 c 0.41306,0.16567 0.8222,0.33635 1.24296,0.5 V 666.75 c 0,-0.27981 -0.18158,-0.5 -0.43504,-0.5 z m 212.70065,0.4375 c -0.25345,0 -0.4661,0.25144 -0.4661,0.53125 v 14.3125 L 679.39713,681 v -13.78125 c 0,-0.27981 -0.21266,-0.53125 -0.46612,-0.53125 z m -3.01416,1 c -0.25345,0 -0.46611,0.22019 -0.46611,0.5 v 14.59375 c 0.43305,-0.17059 0.84931,-0.35851 1.27403,-0.53125 v -14.0625 c 0,-0.27981 -0.21264,-0.5 -0.46611,-0.5 z m -206.20622,0.71875 c -0.25345,0 -0.49717,0.22019 -0.49717,0.5 v 14.90625 c 0.41281,0.15229 0.82339,0.31835 1.24295,0.46875 v -15.375 c 0,-0.27981 -0.18159,-0.5 -0.43504,-0.5 z m 202.72595,1.40625 c -0.25345,0 -0.46611,0.25144 -0.46611,0.53125 v 13.75 c 0.41394,-0.15019 0.83571,-0.3167 1.24295,-0.46875 v -13.28125 c 0,-0.27981 -0.18157,-0.53125 -0.43503,-0.53125 z m -199.02815,0.0937 c -0.25345,0 -0.46611,0.22019 -0.46611,0.5 v 14.75 c 0.51932,0.17608 1.05602,0.35799 1.58476,0.53125 V 670.4062 c 0,-0.27981 -0.21264,-0.5 -0.4661,-0.5 z m 3.3249,1.25 c -0.25345,0 -0.4661,0.22019 -0.4661,0.5 v 14.59375 c 0.50901,0.16069 1.0365,0.31065 1.55368,0.46875 v -15.0625 c 0,-0.27981 -0.18157,-0.5 -0.43503,-0.5 z m 191.69472,0.1875 c -0.25346,0 -0.49718,0.22019 -0.49718,0.5 v 13.65625 c 0.52869,-0.17535 1.06565,-0.35306 1.58476,-0.53125 v -13.125 c 0,-0.27981 -0.21265,-0.5 -0.46611,-0.5 z m -3.35598,1.25 c -0.25346,0 -0.43503,0.22019 -0.43503,0.5 v 13.46875 c 0.5245,-0.16214 1.03771,-0.33517 1.55369,-0.5 V 673.0937 c 0,-0.27981 -0.21266,-0.5 -0.46611,-0.5 z m -184.39236,0.2813 c -0.25345,0 -0.43503,0.22019 -0.43503,0.5 v 14.0625 l 1.55369,0.4375 v -14.5 c 0,-0.27981 -0.21264,-0.5 -0.46611,-0.5 z m 3.57349,0.96875 c -0.25346,0 -0.4661,0.22019 -0.4661,0.5 v 14.09375 c 0.52009,0.14086 1.02668,0.29913 1.5537,0.4375 v -14.53125 c 0,-0.27981 -0.18157,-0.5 -0.43505,-0.5 z m 3.79102,0.0937 c -0.25346,0 -0.46611,0.22019 -0.46611,0.5 v 15 c 0.5243,0.13179 1.05407,0.2769 1.58477,0.40625 v -15.40625 c 0,-0.27981 -0.21265,-0.5 -0.46611,-0.5 z m 173.08147,0.34375 c -0.25346,0 -0.46611,0.22019 -0.46611,0.5 v 12.96875 c 0.5299,-0.15091 1.03158,-0.31522 1.55369,-0.46875 v -12.5 c 0,-0.27981 -0.18159,-0.5 -0.43503,-0.5 z M 491.95952,675 c -0.25346,0 -0.49717,0.22019 -0.49717,0.5 v 14.9375 c 0.52234,0.12102 1.05665,0.25632 1.58477,0.375 V 675.5 c 0,-0.27981 -0.18158,-0.5 -0.43505,-0.5 z m 165.31301,0.28125 c -0.25346,0 -0.49719,0.22019 -0.49719,0.5 v 12.9375 c 0.53439,-0.14176 1.0576,-0.29316 1.58477,-0.4375 v -12.5 c 0,-0.27981 -0.18158,-0.5 -0.43503,-0.5 z m -3.82209,0.0937 c -0.25346,0 -0.4661,0.22019 -0.4661,0.5 v 13.8125 c 0.51626,-0.12718 1.04355,-0.24549 1.55368,-0.375 v -13.4375 c 0,-0.27981 -0.18158,-0.5 -0.43503,-0.5 z M 496.1545,675.5312 c -0.25347,0 -0.46611,0.22019 -0.46611,0.5 v 15.34375 c 0.51214,0.10932 1.03651,0.20537 1.5537,0.3125 V 676.0312 c 0,-0.27981 -0.21265,-0.5 -0.46612,-0.5 z m 153.10097,0.90625 c -0.25346,0 -0.46611,0.22019 -0.46611,0.5 v 13.75 c 0.51706,-0.11739 1.04222,-0.2241 1.55369,-0.34375 v -13.40625 c 0,-0.27981 -0.18157,-0.5 -0.43503,-0.5 z m -4.22605,0.53125 c -0.25345,0 -0.43504,0.22019 -0.43504,0.5 v 14.125 c 0.51962,-0.10871 1.03925,-0.20158 1.5537,-0.3125 v -13.8125 c 0,-0.27981 -0.21266,-0.5 -0.46611,-0.5 z m -145.05284,0.4375 c -0.25345,0 -0.49717,0.22019 -0.49717,0.5 v 14.25 c 0.5321,0.1055 1.04761,0.20931 1.58477,0.3125 v -14.5625 c 0,-0.27981 -0.21266,-0.5 -0.46612,-0.5 z m 4.44357,0.0937 c -0.25345,0 -0.49718,0.22019 -0.49718,0.5 v 15 c 0.52799,0.0959 1.05225,0.1876 1.58476,0.28125 V 677.9999 c 0,-0.27981 -0.21265,-0.5 -0.4661,-0.5 z m 4.1639,1.0625 c -0.25345,0 -0.43503,0.25144 -0.43503,0.53125 v 14.625 c 0.51215,0.0854 1.0376,0.16668 1.55368,0.25 v -14.875 c 0,-0.27981 -0.21265,-0.53125 -0.4661,-0.53125 z m 132.65436,0.28125 c -0.25345,0 -0.43503,0.22019 -0.43503,0.5 v 13.03125 c 0.52229,-0.10148 1.0362,-0.20883 1.55369,-0.3125 v -12.71875 c 0,-0.27981 -0.21265,-0.5 -0.46611,-0.5 z m -4.44357,0.0937 c -0.25346,0 -0.43503,0.22019 -0.43503,0.5 v 13.75 l 1.5537,-0.28125 v -13.46875 c 0,-0.27981 -0.21267,-0.5 -0.46612,-0.5 z m -123.98475,0.1875 c -0.25345,0 -0.43503,0.22019 -0.43503,0.5 v 14.78125 l 1.5537,0.25 v -15.03125 c 0,-0.27981 -0.21265,-0.5 -0.46611,-0.5 z m 4.53679,0.78125 c -0.25345,0 -0.46611,0.22019 -0.46611,0.5 v 14.65625 c 0.52203,0.0722 1.0282,0.14857 1.5537,0.21875 v -14.875 c 0,-0.27981 -0.18159,-0.5 -0.43504,-0.5 z M 632.5688,680 c -0.25345,0 -0.43503,0.22019 -0.43503,0.5 v 13.40625 c 0.51465,-0.084 1.04297,-0.16395 1.55369,-0.25 V 680.5 c 0,-0.27981 -0.21265,-0.5 -0.46611,-0.5 z m -4.1639,0.53125 c -0.25345,0 -0.49718,0.22019 -0.49718,0.5 v 13.53125 l 1.58477,-0.25 v -13.28125 c 0,-0.27981 -0.21266,-0.5 -0.46611,-0.5 z m -106.30372,0.8125 c -0.25344,0 -0.4661,0.22019 -0.4661,0.5 v 13.84375 c 0.516,0.064 1.03457,0.12545 1.55368,0.1875 v -14.03125 c 0,-0.27981 -0.18156,-0.5 -0.43503,-0.5 z m 101.76693,0 c -0.25346,0 -0.49717,0.22019 -0.49717,0.5 v 13.375 c 0.53459,-0.0722 1.05379,-0.1444 1.58475,-0.21875 v -13.15625 c 0,-0.27981 -0.18157,-0.5 -0.43503,-0.5 z m -97.23014,0.8125 c -0.25346,0 -0.46611,0.22019 -0.46611,0.5 v 13.5625 c 0.51688,0.0574 1.03393,0.10084 1.55369,0.15625 v -13.71875 c 0,-0.27981 -0.18157,-0.5 -0.43503,-0.5 z m 4.28819,0.34375 c -0.25346,0 -0.43503,0.22019 -0.43503,0.5 v 13.6875 c 0.51311,0.0507 1.03793,0.0761 1.55369,0.125 V 683 c 0,-0.27981 -0.21264,-0.5 -0.46611,-0.5 z m 88.15658,0.28125 c -0.25347,0 -0.46611,0.22019 -0.46611,0.5 v 12.53125 c 0.52069,-0.063 1.03616,-0.12255 1.5537,-0.1875 v -12.34375 c 0,-0.27981 -0.18159,-0.5 -0.43504,-0.5 z m -83.6198,0.53125 c -0.25346,0 -0.4661,0.22019 -0.4661,0.5 v 13.28125 l 1.55369,0.125 V 683.8125 c 0,-0.27981 -0.18157,-0.5 -0.43503,-0.5 z m 79.08301,0.25 c -0.25346,0 -0.4661,0.25144 -0.4661,0.53125 v 12.25 l 1.58477,-0.1875 v -12.0625 c 0,-0.27981 -0.21266,-0.53125 -0.46612,-0.53125 z m -73.67615,0.0937 c -0.25345,0 -0.4661,0.22019 -0.4661,0.5 v 13.34375 c 0.51837,0.0377 1.03302,0.0892 1.55369,0.125 V 684.1562 c 0,-0.27981 -0.18158,-0.5 -0.43504,-0.5 z m 69.41903,0.28125 c -0.25344,0 -0.49718,0.22019 -0.49718,0.5 v 12.34375 l 1.58476,-0.15625 v -12.1875 c 0,-0.27981 -0.21264,-0.5 -0.4661,-0.5 z m -60.19009,0.0937 c -0.25346,0 -0.4661,0.22019 -0.4661,0.5 v 13.5625 c 0.51665,0.0257 1.03508,0.0387 1.55368,0.0625 v -13.625 c 0,-0.27981 -0.18158,-0.5 -0.43503,-0.5 z m -4.69216,0.4375 c -0.25346,0 -0.4661,0.22019 -0.4661,0.5 v 12.84375 l 1.55369,0.0937 v -12.9375 c 0,-0.27981 -0.18156,-0.5 -0.43504,-0.5 h -0.65255 z m 48.75491,0 c -0.25344,0 -0.43504,0.22019 -0.43504,0.5 v 13 l 1.5537,-0.0937 V 684.9687 c 0,-0.27981 -0.21265,-0.5 -0.4661,-0.5 h -0.65256 z m 5.28256,0 c -0.25346,0 -0.46611,0.22019 -0.46611,0.5 v 12.6875 c 0.52121,-0.0353 1.03476,-0.0878 1.5537,-0.125 v -12.5625 c 0,-0.27981 -0.1816,-0.5 -0.43504,-0.5 z m 6.308,0.28125 c -0.25345,0 -0.49719,0.22019 -0.49719,0.5 v 11.9375 c 0.53234,-0.0447 1.05508,-0.10952 1.58477,-0.15625 V 685.2499 c 0,-0.27981 -0.18158,-0.5 -0.43503,-0.5 z m -51.11652,0.0625 c -0.25345,0 -0.46611,0.25144 -0.46611,0.53125 v 12.9375 l 1.55369,0.0625 v -13 c 0,-0.27981 -0.18158,-0.53125 -0.43503,-0.53125 z m 4.81645,0 c -0.25345,0 -0.43503,0.25144 -0.43503,0.53125 v 13.09375 c 0.51772,0.0141 1.03429,0.0503 1.55368,0.0625 v -13.15625 c 0,-0.27981 -0.21265,-0.53125 -0.4661,-0.53125 z m 5.03397,0 c -0.25347,0 -0.46612,0.25144 -0.46612,0.53125 v 13.21875 c 0.52369,0.008 1.05953,0.0251 1.58477,0.0313 v -13.25 c 0,-0.27981 -0.21265,-0.53125 -0.4661,-0.53125 h -0.65255 z m 5.03396,0 c -0.25346,0 -0.49718,0.25144 -0.49718,0.53125 v 13.28125 h 1.58477 v -13.28125 c 0,-0.27981 -0.18158,-0.53125 -0.43504,-0.53125 z m 5.56223,0 c -0.25346,0 -0.43504,0.25144 -0.43504,0.53125 v 13.25 l 1.55369,-0.0313 V 685.3436 c 0,-0.27981 -0.21264,-0.53125 -0.4661,-0.53125 h -0.65255 z m 4.13282,0 c -0.25346,0 -0.46611,0.25144 -0.46611,0.53125 v 13.1875 l 1.58477,-0.0313 V 685.3436 c 0,-0.27981 -0.24372,-0.53125 -0.49719,-0.53125 h -0.62147 z m 4.84752,0 c -0.25344,0 -0.4661,0.25144 -0.4661,0.53125 v 13.09375 l 1.55369,-0.0625 v -13.03125 c 0,-0.27981 -0.18157,-0.53125 -0.43504,-0.53125 z m 5.50008,0 c -0.25346,0 -0.46611,0.25144 -0.46611,0.53125 v 12.875 c 0.51485,-0.0223 1.04074,-0.0696 1.5537,-0.0937 V 685.3437 c 0,-0.27981 -0.18157,-0.53125 -0.43504,-0.53125 h -0.65255 z"
             id="path79" />
          <path
             inkscape:connector-curvature="0"
             style="opacity:0.26720048;fill:url(#g)"
             d="m 438.75,645.8125 c -0.16477,0 -0.28125,0.22019 -0.28125,0.5 v 13.8125 c 0.16188,0.60575 0.35063,1.21434 0.59375,1.8125 v -15.625 c 0,-0.27981 -0.14772,-0.5 -0.3125,-0.5 z m 0.90625,1.0625 c -0.16477,0 -0.3125,0.22019 -0.3125,0.5 v 15.1875 c 0.1795,0.39357 0.37965,0.79753 0.59375,1.1875 v -16.375 c 0,-0.27981 -0.11646,-0.5 -0.28125,-0.5 z M 706.5,647.28125 c -0.11125,0.075 -0.21875,0.25889 -0.21875,0.46875 v 12.59375 c 0.35234,-1.24136 0.5625,-2.4799 0.5625,-3.75 0,-0.94922 -0.11451,-1.91019 -0.3125,-2.84375 v -6.46875 c -0.0116,0.005 -0.0201,-0.008 -0.0313,0 z m -265.78125,0.9375 c -0.16476,0 -0.3125,0.22019 -0.3125,0.5 v 15.84375 c 0.17585,0.28659 0.36815,0.55927 0.5625,0.84375 0.0293,-0.0847 0.0313,-0.17727 0.0313,-0.28125 v -16.40625 c 0,-0.27981 -0.11646,-0.5 -0.28125,-0.5 z m 265,0.0937 c -0.16476,0 -0.3125,0.22019 -0.3125,0.5 v 13.875 c 0.22812,-0.48953 0.42003,-0.97389 0.59375,-1.46875 v -12.40625 c 0,-0.27981 -0.11648,-0.5 -0.28125,-0.5 z m -264.03125,1.25 c -0.16479,0 -0.28125,0.22019 -0.28125,0.5 v 15.96875 c 0.16783,0.22829 0.35159,0.46065 0.53125,0.6875 0.0312,-0.0769 0.0625,-0.1511 0.0625,-0.25 v -16.40625 c 0,-0.27981 -0.14773,-0.5 -0.3125,-0.5 z m 262.96875,0.0937 c -0.16477,0 -0.3125,0.22019 -0.3125,0.5 v 14.5 c 0.22311,-0.35923 0.43132,-0.73131 0.625,-1.09375 v -13.40625 c 0,-0.27981 -0.14773,-0.5 -0.3125,-0.5 z M 703.6875,651 c -0.16477,0 -0.3125,0.22019 -0.3125,0.5 v 14.59375 c 0.22713,-0.30667 0.41945,-0.59704 0.625,-0.90625 V 651.5 c 0,-0.27981 -0.14772,-0.5 -0.3125,-0.5 z m -261,1.15625 c -0.16477,0 -0.3125,0.22019 -0.3125,0.5 v 14.625 c 0.18717,0.22326 0.39519,0.43446 0.59375,0.65625 v -15.28125 c 0,-0.27981 -0.11647,-0.5 -0.28125,-0.5 z m 1.125,1.0625 c -0.16477,0 -0.3125,0.22019 -0.3125,0.5 v 14.8125 c 0.19627,0.20754 0.38755,0.41881 0.59375,0.625 v -15.4375 c 0,-0.27981 -0.11646,-0.5 -0.28125,-0.5 z m 258.90625,0.34375 c -0.16477,0 -0.3125,0.25144 -0.3125,0.53125 v 13.21875 c 0.20564,-0.24449 0.4019,-0.50378 0.59375,-0.75 v -12.46875 c 0,-0.27981 -0.11647,-0.53125 -0.28125,-0.53125 z m -257.6875,0.46875 c -0.20984,0 -0.375,0.22019 -0.375,0.5 v 15.15625 c 0.2428,0.23173 0.49473,0.45757 0.75,0.6875 v -15.84375 c 0,-0.27981 -0.16517,-0.5 -0.375,-0.5 z m 256.53125,0.625 c -0.16479,0 -0.3125,0.22019 -0.3125,0.5 V 668.625 c 0.20272,-0.21274 0.40155,-0.44211 0.59375,-0.65625 v -12.8125 c 0,-0.27981 -0.11649,-0.5 -0.28125,-0.5 z m -263.46875,0.28125 c -0.069,0.54096 -0.0937,1.11192 -0.0937,1.65625 0,0.54433 0.0294,1.05947 0.0937,1.59375 z m 8.40625,0.5 c -0.20983,0 -0.40625,0.25144 -0.40625,0.53125 v 15 c 0.25475,0.21857 0.51529,0.43939 0.78125,0.65625 v -15.65625 c 0,-0.27981 -0.16517,-0.53125 -0.375,-0.53125 z m 253.84375,0 c -0.20983,0 -0.375,0.25144 -0.375,0.53125 V 669.875 c 0.25924,-0.24344 0.50468,-0.47335 0.75,-0.71875 v -13.1875 c 0,-0.27981 -0.16516,-0.53125 -0.375,-0.53125 z m -251.8125,1.4375 c -0.20984,0 -0.375,0.22019 -0.375,0.5 v 15.25 c 0.24516,0.18539 0.49664,0.37845 0.75,0.5625 V 657.375 c 0,-0.27981 -0.16517,-0.5 -0.375,-0.5 z m 250.375,0 c -0.20984,0 -0.40625,0.22019 -0.40625,0.5 v 13.8125 l 0.75,-0.65625 V 657.375 c 0,-0.27981 -0.13391,-0.5 -0.34375,-0.5 z m -247.9375,1.34375 c -0.20983,0 -0.375,0.22019 -0.375,0.5 v 15.625 c 0.25653,0.17172 0.4863,0.36081 0.75,0.53125 v -16.15625 c 0,-0.27981 -0.16517,-0.5 -0.375,-0.5 z m 245.875,0.0937 c -0.20983,0 -0.375,0.22019 -0.375,0.5 v 13.96875 c 0.25683,-0.19203 0.50206,-0.36903 0.75,-0.5625 v -13.40625 c 0,-0.27981 -0.16516,-0.5 -0.375,-0.5 z m -2.4375,1.34375 c -0.20983,0 -0.375,0.22019 -0.375,0.5 v 14.34375 c 0.26041,-0.17258 0.49691,-0.35739 0.75,-0.53125 v -13.8125 c 0,-0.27981 -0.16515,-0.5 -0.375,-0.5 z M 453.0625,659.75 c -0.20983,0 -0.34375,0.22019 -0.34375,0.5 v 15.46875 c 0.24694,0.15082 0.49742,0.28774 0.75,0.4375 V 660.25 c 0,-0.27981 -0.19641,-0.5 -0.40625,-0.5 z m 2.71875,1.0625 c -0.20984,0 -0.40625,0.22019 -0.40625,0.5 V 677.25 c 0.25439,0.14059 0.52185,0.26667 0.78125,0.40625 V 661.3125 c 0,-0.27981 -0.16517,-0.5 -0.375,-0.5 z m 236.5,0.34375 c -0.20985,0 -0.375,0.22019 -0.375,0.5 v 14.1875 c 0.25315,-0.15334 0.50273,-0.31432 0.75,-0.46875 v -13.71875 c 0,-0.27981 -0.16517,-0.5 -0.375,-0.5 z M 458.1875,662.0625 c -0.25489,0 -0.4375,0.22019 -0.4375,0.5 V 678.5 l 1.21875,0.625 c 0.0163,-0.0519 0.0313,-0.0976 0.0313,-0.15625 V 662.5625 c 0,-0.27981 -0.21384,-0.5 -0.46875,-0.5 h -0.34375 z M 689.625,662.25 c -0.20984,0 -0.40625,0.22019 -0.40625,0.5 v 14.625 c 0.2479,-0.13589 0.50683,-0.26942 0.75,-0.40625 V 662.75 c 0,-0.27981 -0.13392,-0.5 -0.34375,-0.5 z m -228.71875,1.0625 c -0.25489,0 -0.5,0.22019 -0.5,0.5 v 16 c 0.40278,0.18957 0.80644,0.37511 1.21875,0.5625 0.0167,-0.0525 0.0625,-0.0968 0.0625,-0.15625 V 663.8125 c 0,-0.27981 -0.21385,-0.5 -0.46875,-0.5 z m 225.9375,0.1875 c -0.2549,0 -0.46875,0.22019 -0.46875,0.5 v 14.875 l 1.25,-0.625 V 664 c 0,-0.27981 -0.21385,-0.5 -0.46875,-0.5 z m -2.6875,1.25 c -0.25488,0 -0.46875,0.22019 -0.46875,0.5 v 14.9375 c 0.43126,-0.19861 0.8294,-0.42398 1.25,-0.625 V 665.25 c 0,-0.27981 -0.1826,-0.5 -0.4375,-0.5 z m -220.09375,0.53125 c -0.25489,0 -0.46875,0.22019 -0.46875,0.5 V 681.25 l 1.28125,0.53125 v -16 c 0,-0.27981 -0.24511,-0.5 -0.5,-0.5 z m 3.03125,0.96875 c -0.25489,0 -0.5,0.22019 -0.5,0.5 v 15.71875 c 0.4154,0.16567 0.82686,0.33635 1.25,0.5 V 666.75 c 0,-0.27981 -0.18261,-0.5 -0.4375,-0.5 z M 681,666.6875 c -0.25489,0 -0.46875,0.25144 -0.46875,0.53125 v 14.3125 l 1.25,-0.53125 v -13.78125 c 0,-0.27981 -0.21386,-0.53125 -0.46875,-0.53125 z m -3.03125,1 c -0.25489,0 -0.46875,0.22019 -0.46875,0.5 v 14.59375 c 0.4355,-0.17059 0.85412,-0.35851 1.28125,-0.53125 v -14.0625 c 0,-0.27981 -0.21385,-0.5 -0.46875,-0.5 z m -207.375,0.71875 c -0.25489,0 -0.5,0.22019 -0.5,0.5 v 14.90625 c 0.41515,0.15229 0.82806,0.31835 1.25,0.46875 v -15.375 c 0,-0.27981 -0.18261,-0.5 -0.4375,-0.5 z m 203.875,1.40625 c -0.25489,0 -0.46875,0.25144 -0.46875,0.53125 v 13.75 c 0.41629,-0.15019 0.84045,-0.3167 1.25,-0.46875 v -13.28125 c 0,-0.27981 -0.1826,-0.53125 -0.4375,-0.53125 z m -200.15625,0.0937 c -0.25489,0 -0.46875,0.22019 -0.46875,0.5 v 14.75 c 0.52227,0.17608 1.06201,0.35799 1.59375,0.53125 V 670.4062 c 0,-0.27981 -0.21385,-0.5 -0.46875,-0.5 z m 3.34375,1.25 c -0.25489,0 -0.46875,0.22019 -0.46875,0.5 v 14.59375 c 0.5119,0.16069 1.04239,0.31065 1.5625,0.46875 v -15.0625 c 0,-0.27981 -0.1826,-0.5 -0.4375,-0.5 z m 192.78125,0.1875 c -0.25489,0 -0.5,0.22019 -0.5,0.5 v 13.65625 c 0.53169,-0.17535 1.0717,-0.35306 1.59375,-0.53125 v -13.125 c 0,-0.27981 -0.21386,-0.5 -0.46875,-0.5 z m -3.375,1.25 c -0.2549,0 -0.4375,0.22019 -0.4375,0.5 v 13.46875 c 0.52748,-0.16214 1.0436,-0.33517 1.5625,-0.5 V 673.0937 c 0,-0.27981 -0.21386,-0.5 -0.46875,-0.5 z M 481.625,672.875 c -0.25489,0 -0.4375,0.22019 -0.4375,0.5 v 14.0625 l 1.5625,0.4375 v -14.5 c 0,-0.27981 -0.21385,-0.5 -0.46875,-0.5 z m 3.59375,0.96875 c -0.2549,0 -0.46875,0.22019 -0.46875,0.5 v 14.09375 c 0.52304,0.14086 1.0325,0.29913 1.5625,0.4375 v -14.53125 c 0,-0.27981 -0.1826,-0.5 -0.4375,-0.5 z m 3.8125,0.0937 c -0.2549,0 -0.46875,0.22019 -0.46875,0.5 v 15 c 0.52727,0.13179 1.06004,0.2769 1.59375,0.40625 v -15.40625 c 0,-0.27981 -0.21385,-0.5 -0.46875,-0.5 z m 174.0625,0.34375 c -0.2549,0 -0.46875,0.22019 -0.46875,0.5 v 12.96875 c 0.53291,-0.15091 1.03742,-0.31522 1.5625,-0.46875 v -12.5 c 0,-0.27981 -0.18262,-0.5 -0.4375,-0.5 z M 493.28125,675 c -0.2549,0 -0.5,0.22019 -0.5,0.5 v 14.9375 c 0.5253,0.12102 1.06265,0.25632 1.59375,0.375 V 675.5 c 0,-0.27981 -0.18261,-0.5 -0.4375,-0.5 z m 166.25,0.28125 c -0.2549,0 -0.5,0.22019 -0.5,0.5 v 12.9375 c 0.53742,-0.14176 1.06359,-0.29316 1.59375,-0.4375 v -12.5 c 0,-0.27981 -0.18261,-0.5 -0.4375,-0.5 z m -3.84375,0.0937 c -0.2549,0 -0.46875,0.22019 -0.46875,0.5 v 13.8125 c 0.5192,-0.12718 1.04947,-0.24549 1.5625,-0.375 v -13.4375 c 0,-0.27981 -0.18261,-0.5 -0.4375,-0.5 z M 497.5,675.53125 c -0.2549,0 -0.46875,0.22019 -0.46875,0.5 V 691.375 c 0.51504,0.10932 1.04238,0.20537 1.5625,0.3125 v -15.65625 c 0,-0.27981 -0.21386,-0.5 -0.46875,-0.5 z m 153.96875,0.90625 c -0.2549,0 -0.46875,0.22019 -0.46875,0.5 v 13.75 c 0.51999,-0.11739 1.04813,-0.2241 1.5625,-0.34375 V 676.9375 c 0,-0.27981 -0.1826,-0.5 -0.4375,-0.5 z m -4.25,0.53125 c -0.25489,0 -0.4375,0.22019 -0.4375,0.5 v 14.125 c 0.52256,-0.10871 1.04513,-0.20158 1.5625,-0.3125 v -13.8125 c 0,-0.27981 -0.21386,-0.5 -0.46875,-0.5 z m -145.875,0.4375 c -0.25489,0 -0.5,0.22019 -0.5,0.5 v 14.25 c 0.53513,0.1055 1.05356,0.20931 1.59375,0.3125 v -14.5625 c 0,-0.27981 -0.21385,-0.5 -0.46875,-0.5 z m 4.46875,0.0937 c -0.25489,0 -0.5,0.22019 -0.5,0.5 v 15 c 0.53098,0.0959 1.05822,0.1876 1.59375,0.28125 v -15.28125 c 0,-0.27981 -0.21386,-0.5 -0.46875,-0.5 z M 510,678.5625 c -0.25489,0 -0.4375,0.25144 -0.4375,0.53125 v 14.625 c 0.51506,0.0854 1.04349,0.16668 1.5625,0.25 v -14.875 c 0,-0.27981 -0.21386,-0.53125 -0.46875,-0.53125 z m 133.40625,0.28125 c -0.25489,0 -0.4375,0.22019 -0.4375,0.5 V 692.375 c 0.52526,-0.10148 1.04208,-0.20883 1.5625,-0.3125 v -12.71875 c 0,-0.27981 -0.21385,-0.5 -0.46875,-0.5 z m -4.46875,0.0937 c -0.2549,0 -0.4375,0.22019 -0.4375,0.5 v 13.75 l 1.5625,-0.28125 v -13.46875 c 0,-0.27981 -0.21386,-0.5 -0.46875,-0.5 z M 514.25,679.125 c -0.25489,0 -0.4375,0.22019 -0.4375,0.5 v 14.78125 l 1.5625,0.25 V 679.625 c 0,-0.27981 -0.21385,-0.5 -0.46875,-0.5 z m 4.5625,0.78125 c -0.25489,0 -0.46875,0.22019 -0.46875,0.5 v 14.65625 c 0.52499,0.0722 1.03402,0.14857 1.5625,0.21875 v -14.875 c 0,-0.27981 -0.18261,-0.5 -0.4375,-0.5 z M 634.6875,680 c -0.25489,0 -0.4375,0.22019 -0.4375,0.5 v 13.40625 c 0.51758,-0.084 1.04889,-0.16395 1.5625,-0.25 V 680.5 c 0,-0.27981 -0.21385,-0.5 -0.46875,-0.5 z m -4.1875,0.53125 c -0.25489,0 -0.5,0.22019 -0.5,0.5 v 13.53125 l 1.59375,-0.25 v -13.28125 c 0,-0.27981 -0.21386,-0.5 -0.46875,-0.5 z m -106.90625,0.8125 c -0.25488,0 -0.46875,0.22019 -0.46875,0.5 v 13.84375 c 0.51893,0.064 1.04044,0.12545 1.5625,0.1875 v -14.03125 c 0,-0.27981 -0.1826,-0.5 -0.4375,-0.5 z m 102.34375,0 c -0.2549,0 -0.5,0.22019 -0.5,0.5 v 13.375 c 0.53762,-0.0722 1.05977,-0.1444 1.59375,-0.21875 v -13.15625 c 0,-0.27981 -0.18261,-0.5 -0.4375,-0.5 z m -97.78125,0.8125 c -0.2549,0 -0.46875,0.22019 -0.46875,0.5 v 13.5625 c 0.51981,0.0574 1.03979,0.10084 1.5625,0.15625 v -13.71875 c 0,-0.27981 -0.1826,-0.5 -0.4375,-0.5 z m 4.3125,0.34375 c -0.2549,0 -0.4375,0.22019 -0.4375,0.5 v 13.6875 c 0.51602,0.0507 1.04381,0.0761 1.5625,0.125 V 683 c 0,-0.27981 -0.21385,-0.5 -0.46875,-0.5 z m 88.65625,0.28125 c -0.2549,0 -0.46875,0.22019 -0.46875,0.5 v 12.53125 c 0.52365,-0.063 1.04203,-0.12255 1.5625,-0.1875 v -12.34375 c 0,-0.27981 -0.18261,-0.5 -0.4375,-0.5 z m -84.09375,0.53125 c -0.2549,0 -0.46875,0.22019 -0.46875,0.5 v 13.28125 l 1.5625,0.125 V 683.8125 c 0,-0.27981 -0.18261,-0.5 -0.4375,-0.5 z m 79.53125,0.25 c -0.2549,0 -0.46875,0.25144 -0.46875,0.53125 v 12.25 l 1.59375,-0.1875 v -12.0625 c 0,-0.27981 -0.21385,-0.53125 -0.46875,-0.53125 z m -74.09375,0.0937 c -0.25489,0 -0.46875,0.22019 -0.46875,0.5 V 697.5 c 0.52132,0.0377 1.03888,0.0892 1.5625,0.125 v -13.46875 c 0,-0.27981 -0.18261,-0.5 -0.4375,-0.5 h -0.65625 z m 69.8125,0.28125 c -0.25488,0 -0.5,0.22019 -0.5,0.5 v 12.34375 l 1.59375,-0.15625 v -12.1875 c 0,-0.27981 -0.21385,-0.5 -0.46875,-0.5 z m -60.53125,0.0937 c -0.2549,0 -0.46875,0.22019 -0.46875,0.5 v 13.5625 c 0.51958,0.0257 1.04096,0.0387 1.5625,0.0625 v -13.625 c 0,-0.27981 -0.18261,-0.5 -0.4375,-0.5 z m -4.71875,0.4375 c -0.2549,0 -0.46875,0.22019 -0.46875,0.5 v 12.84375 l 1.5625,0.0937 v -12.9375 c 0,-0.27981 -0.1826,-0.5 -0.4375,-0.5 h -0.65625 z m 49.03125,0 c -0.25488,0 -0.4375,0.22019 -0.4375,0.5 v 13 l 1.5625,-0.0937 V 684.9687 c 0,-0.27981 -0.21386,-0.5 -0.46875,-0.5 h -0.65625 z m 5.3125,0 c -0.2549,0 -0.46875,0.22019 -0.46875,0.5 v 12.6875 c 0.52416,-0.0353 1.04063,-0.0878 1.5625,-0.125 v -12.5625 c 0,-0.27981 -0.18262,-0.5 -0.4375,-0.5 z m 6.34375,0.28125 c -0.25489,0 -0.5,0.22019 -0.5,0.5 v 11.9375 c 0.53536,-0.0447 1.06105,-0.10952 1.59375,-0.15625 V 685.2499 c 0,-0.27981 -0.18261,-0.5 -0.4375,-0.5 z m -51.40625,0.0625 c -0.25489,0 -0.46875,0.25144 -0.46875,0.53125 v 12.9375 l 1.5625,0.0625 v -13 c 0,-0.27981 -0.18261,-0.53125 -0.4375,-0.53125 z m 4.84375,0 c -0.25489,0 -0.4375,0.25144 -0.4375,0.53125 v 13.09375 c 0.52067,0.0141 1.04015,0.0503 1.5625,0.0625 v -13.15625 c 0,-0.27981 -0.21386,-0.53125 -0.46875,-0.53125 z m 5.0625,0 c -0.2549,0 -0.46875,0.25144 -0.46875,0.53125 v 13.21875 c 0.52665,0.008 1.06553,0.0251 1.59375,0.0313 v -13.25 c 0,-0.27981 -0.21386,-0.53125 -0.46875,-0.53125 h -0.65625 z m 5.0625,0 c -0.2549,0 -0.5,0.25144 -0.5,0.53125 v 13.28125 h 1.59375 v -13.28125 c 0,-0.27981 -0.18261,-0.53125 -0.4375,-0.53125 z m 5.59375,0 c -0.25489,0 -0.4375,0.25144 -0.4375,0.53125 v 13.25 L 578,698.56235 V 685.3436 c 0,-0.27981 -0.21385,-0.53125 -0.46875,-0.53125 H 576.875 Z m 4.15625,0 c -0.25489,0 -0.46875,0.25144 -0.46875,0.53125 v 13.1875 l 1.59375,-0.0313 V 685.3436 c 0,-0.27981 -0.24511,-0.53125 -0.5,-0.53125 h -0.625 z m 4.875,0 c -0.25488,0 -0.46875,0.25144 -0.46875,0.53125 V 698.4374 L 587,698.3749 v -13.03125 c 0,-0.27981 -0.1826,-0.53125 -0.4375,-0.53125 z m 5.53125,0 c -0.25489,0 -0.46875,0.25144 -0.46875,0.53125 v 12.875 c 0.51777,-0.0223 1.04663,-0.0696 1.5625,-0.0937 V 685.3437 c 0,-0.27981 -0.1826,-0.53125 -0.4375,-0.53125 h -0.65625 z"
             id="path81" />
        </g>
        <path
           style="fill:#7e7e7e"
           inkscape:connector-curvature="0"
           d="m 365.32,523.9 c -84.043,0 -152.19,23.348 -152.19,52.17 0,1.351 0.16526,2.6982 0.45929,4.0235 v 140.89 c -0.29403,1.3252 -0.45929,2.6724 -0.45929,4.0235 0,28.822 68.143,52.17 152.19,52.17 84.047,0 152.15,-23.348 152.15,-52.17 0,-1.178 -0.10398,-2.3578 -0.32807,-3.5163 v -141.9 c 0.22406,-1.1586 0.32807,-2.3383 0.32807,-3.5163 0,-28.822 -68.111,-52.17 -152.15,-52.17 z"
           id="path85" />
        <path
           style="fill:#161616"
           inkscape:connector-curvature="0"
           d="m 365.33,523.9 c -95.745,0 -173.38,23.025 -173.38,51.45 0,1.3324 0.18825,2.661 0.52322,3.9679 v 138.94 c -0.33497,1.3069 -0.52322,2.6355 -0.52322,3.9679 0,28.424 77.631,51.45 173.38,51.45 95.749,0 173.34,-23.025 173.34,-51.45 0,-1.1617 -0.11839,-2.3252 -0.37373,-3.4678 v -139.94 c 0.25525,-1.1426 0.37373,-2.306 0.37373,-3.4678 0,-28.424 -77.594,-51.45 -173.34,-51.45 z"
           id="path87" />
        <path
           style="opacity:0.32790001;fill:#333333"
           inkscape:connector-curvature="0"
           d="m 365.33,467.45 c -96.787,0 -175.26,27.263 -175.26,60.92 0,1.5776 0.19032,3.1508 0.52893,4.6983 v 164.52 c -0.33861,1.5475 -0.52893,3.1206 -0.52893,4.6983 0,33.656 78.477,60.92 175.26,60.92 96.783,0 175.23,-27.263 175.23,-60.92 0,-1.3756 -0.11978,-2.7532 -0.37781,-4.106 v -165.7 c 0.25803,-1.3529 0.37781,-2.7305 0.37781,-4.106 0,-33.656 -78.439,-60.92 -175.23,-60.92 z"
           id="path89" />
        <path
           style="fill:#141414"
           inkscape:connector-curvature="0"
           d="m 365.33,464.92 c -96.787,0 -175.26,27.263 -175.26,60.92 0,1.5776 0.19032,3.1508 0.52893,4.6983 v 164.52 c -0.33861,1.5475 -0.52893,3.1206 -0.52893,4.6983 0,33.656 78.477,60.92 175.26,60.92 96.783,0 175.23,-27.263 175.23,-60.92 0,-1.3756 -0.11978,-2.7532 -0.37781,-4.106 v -165.7 c 0.25803,-1.3529 0.37781,-2.7305 0.37781,-4.106 0,-33.656 -78.439,-60.92 -175.23,-60.92 z"
           id="path91" />
        <path
           style="fill:#1a1a1a"
           inkscape:connector-curvature="0"
           d="m 365.33,328.29 c -102.27,0 -185.19,27.263 -185.19,60.92 0,1.5776 0.2011,3.1508 0.55889,4.6983 v 164.52 c -0.35779,1.5475 -0.55889,3.1206 -0.55889,4.6983 0,33.656 82.922,60.92 185.19,60.92 102.268,0 185.15,-27.263 185.15,-60.92 0,-1.3756 -0.12661,-2.7532 -0.3992,-4.106 v -165.7 c 0.27264,-1.3528 0.3992,-2.7305 0.3992,-4.106 0,-33.656 -82.882,-60.92 -185.15,-60.92 z"
           id="path93" />
        <path
           style="fill:#808080"
           inkscape:connector-curvature="0"
           d="m 365.33,320.68 c -100.51,0 -182,27.734 -182,61.971 0,1.6049 0.19764,3.2052 0.54927,4.7794 v 167.36 c -0.35163,1.5742 -0.54927,3.1745 -0.54927,4.7794 0,34.237 81.493,61.971 182,61.971 100.507,0 181.96,-27.734 181.96,-61.971 0,-1.3993 -0.12445,-2.8007 -0.39233,-4.1769 v -168.56 c 0.26795,-1.3762 0.39233,-2.7776 0.39233,-4.1769 0,-34.237 -81.454,-61.971 -181.96,-61.971 z"
           id="path95" />
        <path
           inkscape:connector-curvature="0"
           style="fill:url(#h)"
           d="m 365.33,330.13 c -27.318,1.6427 -200.7,1.83 -188.47,63.564 v 159.37 c -0.36522,1.499 -0.5705,3.023 -0.5705,4.5512 0,32.603 84.644,59.013 189.04,59.013 104.396,0 189,-26.41 189,-59.013 0,-1.3325 -0.12925,-2.667 -0.40751,-3.9775 v -160.52 c 0.27831,-1.3105 0.40751,-2.645 0.40751,-3.9775 0,-32.603 -84.603,-59.013 -189,-59.013 z"
           id="path97" />
        <path
           inkscape:connector-curvature="0"
           style="opacity:0.82190001;fill:none;stroke:url(#p);stroke-width:1.26329994"
           d="m 346.16,431.59 h 19.145 a 5.3464,5.3464 0 0 1 5.3464,5.3464 v 144.04 a 5.3464,5.3464 0 0 1 -5.3464,5.3464 H 346.16 a 5.3464,5.3464 0 0 1 -5.3464,-5.3464 v -144.04 A 5.3464,5.3464 0 0 1 346.16,431.59"
           id="path99" />
        <path
           inkscape:connector-curvature="0"
           style="opacity:0.82190001;fill:none;stroke:url(#o);stroke-width:1.26329994"
           d="m 255.48,420.22 h 11.255 c 2.7698,0 4.9996,2.3845 4.9996,5.3463 v 145.35 c 0,2.9619 -2.2298,5.3463 -4.9996,5.3463 l -11.255,-1.9669 c -2.7698,0 -4.9996,-2.3845 -4.9996,-5.3463 v -143.38 c 0,-2.9619 2.2298,-5.3463 4.9996,-5.3463 z"
           id="path101" />
        <path
           inkscape:connector-curvature="0"
           style="opacity:0.82190001;fill:none;stroke:url(#q);stroke-width:1.26329994"
           d="m 461.41,420.22 h -14.163 c -3.4854,0 -6.2914,2.4459 -6.2914,5.484 v 149.09 c 0,3.0382 2.806,5.484 6.2914,5.484 l 14.163,-2.0176 c 3.4854,0 6.2914,-2.4458 6.2914,-5.484 v -147.07 c 0,-3.0381 -2.806,-5.484 -6.2914,-5.484 z"
           id="path103" />
        <path
           inkscape:connector-curvature="0"
           style="opacity:0.82190001;fill:none;stroke:url(#r);stroke-width:1.26329994"
           d="m 529.9,397.66 h -6.3577 c -1.5645,0 -2.8241,2.4459 -2.8241,5.484 v 149.09 c 0,3.0382 1.2596,5.484 2.8241,5.484 l 6.3577,-3.872 c 1.5645,0 2.824,-2.4459 2.824,-5.484 v -145.22 c 0,-3.0381 -1.2595,-5.484 -2.824,-5.484 z"
           id="path105" />
        <path
           inkscape:connector-curvature="0"
           style="opacity:0.82190001;fill:none;stroke:url(#n);stroke-width:1.26329994"
           d="m 194.63,393.29 h 5.7083 c 1.4048,0 2.5356,2.4459 2.5356,5.484 v 149.09 c 0,3.0381 -0.10903,5.484 -2.5356,5.484 l -5.7083,-3.872 c -1.4047,0 -2.5356,-2.4459 -2.5356,-5.484 v -145.22 c 0,-3.0381 1.1309,-5.484 2.5356,-5.484 z"
           id="path107" />
        <path
           inkscape:connector-curvature="0"
           style="opacity:0.31170002;fill:none;stroke:url(#k);stroke-width:1.26329994"
           d="m 346.16,431.59 h 19.145 a 5.3464,5.3464 0 0 1 5.3464,5.3464 v 144.04 a 5.3464,5.3464 0 0 1 -5.3464,5.3464 H 346.16 a 5.3464,5.3464 0 0 1 -5.3464,-5.3464 v -144.04 A 5.3464,5.3464 0 0 1 346.16,431.59"
           id="path109" />
        <path
           inkscape:connector-curvature="0"
           style="opacity:0.31170002;fill:none;stroke:url(#j);stroke-width:1.26329994"
           d="m 255.48,420.22 h 11.255 c 2.7698,0 4.9996,2.3845 4.9996,5.3463 v 145.35 c 0,2.9619 -2.2298,5.3463 -4.9996,5.3463 l -11.255,-1.9669 c -2.7698,0 -4.9996,-2.3845 -4.9996,-5.3463 v -143.38 c 0,-2.9619 2.2298,-5.3463 4.9996,-5.3463 z"
           id="path111" />
        <path
           inkscape:connector-curvature="0"
           style="opacity:0.31170002;fill:none;stroke:url(#l);stroke-width:1.26329994"
           d="m 461.41,420.22 h -14.163 c -3.4854,0 -6.2914,2.4459 -6.2914,5.484 v 149.09 c 0,3.0382 2.806,5.484 6.2914,5.484 l 14.163,-2.0176 c 3.4854,0 6.2914,-2.4458 6.2914,-5.484 v -147.07 c 0,-3.0381 -2.806,-5.484 -6.2914,-5.484 z"
           id="path113" />
        <path
           inkscape:connector-curvature="0"
           style="opacity:0.31170002;fill:none;stroke:url(#m);stroke-width:1.26329994"
           d="m 529.9,397.66 h -6.3577 c -1.5645,0 -2.8241,2.4459 -2.8241,5.484 v 149.09 c 0,3.0382 1.2596,5.484 2.8241,5.484 l 6.3577,-3.872 c 1.5645,0 2.824,-2.4459 2.824,-5.484 v -145.22 c 0,-3.0381 -1.2595,-5.484 -2.824,-5.484 z"
           id="path115" />
        <path
           inkscape:connector-curvature="0"
           style="opacity:0.31170002;fill:none;stroke:url(#i);stroke-width:1.26329994"
           d="m 194.63,393.29 h 5.7083 c 1.4048,0 2.5356,2.4459 2.5356,5.484 v 149.09 c 0,3.0381 -0.10903,5.484 -2.5356,5.484 l -5.7083,-3.872 c -1.4047,0 -2.5356,-2.4459 -2.5356,-5.484 v -145.22 c 0,-3.0381 1.1309,-5.484 2.5356,-5.484 z"
           id="path117" />
        <path
           inkscape:connector-curvature="0"
           transform="matrix(1.2379,0,0,1.9262,104,-519.32)"
           d="m 363.57,470.58 c 0,14.793 -68.277,26.786 -152.5,26.786 -84.223,0 -152.5,-11.992 -152.5,-26.786 0,-14.794 68.277,-26.786 152.5,-26.786 84.223,0 152.5,11.992 152.5,26.786 z"
           id="path119" />
        <path
           style="fill:#1a1a1a"
           inkscape:connector-curvature="0"
           transform="matrix(1.2379,0,0,1.9337,104,-525.32)"
           d="m 363.57,470.58 c 0,14.793 -68.277,26.786 -152.5,26.786 -84.223,0 -152.5,-11.992 -152.5,-26.786 0,-14.794 68.277,-26.786 152.5,-26.786 84.223,0 152.5,11.992 152.5,26.786 z"
           id="path121" />
        <path
           style="fill:#b3b3b3"
           inkscape:connector-curvature="0"
           d="m 364.57,252.99 c -101.45,0 -183.66,25.039 -183.66,55.909 0,1.3406 0.13794,2.6513 0.44301,3.9683 h -0.22152 v 50.133 c -0.15868,0.95266 -0.22149,1.9454 -0.22149,2.9101 0,0.92181 0.0766,1.8228 0.22149,2.7337 4.7106,29.593 85.019,53.132 183.44,53.132 101.45,0 183.7,-24.995 183.7,-55.865 0,-1.2662 -0.13372,-2.5468 -0.40609,-3.792 v -49.251 h -0.037 c 0.30507,-1.317 0.44301,-2.6277 0.44301,-3.9683 0,-30.87 -82.248,-55.909 -183.7,-55.909 z"
           id="path123" />
        <path
           style="fill:#0d0d0d"
           inkscape:connector-curvature="0"
           d="m 364.57,252.99 c -101.45,0 -183.66,24.504 -183.66,54.714 0,1.312 0.13794,2.5946 0.44301,3.8835 h -0.22152 v 49.061 c -0.15868,0.9323 -0.22149,1.9038 -0.22149,2.8479 0,0.90211 0.0766,1.7839 0.22149,2.6753 4.7106,28.96 85.019,51.995 183.44,51.995 101.45,0 183.7,-24.461 183.7,-54.671 0,-1.2391 -0.13372,-2.4923 -0.40609,-3.7109 v -48.198 h -0.037 c 0.30507,-1.2888 0.44301,-2.5715 0.44301,-3.8835 0,-30.21 -82.248,-54.714 -183.7,-54.714 z"
           id="path125" />
        <path
           style="fill:#1a1a1a"
           inkscape:connector-curvature="0"
           d="m 364.57,248.54 c -101.45,0 -183.66,24.504 -183.66,54.714 0,1.312 0.13794,2.5946 0.44301,3.8835 h -0.22152 v 49.061 c -0.15868,0.93229 -0.22149,1.9038 -0.22149,2.8479 0,0.9021 0.0766,1.7839 0.22149,2.6753 4.7106,28.96 85.019,51.995 183.44,51.995 101.45,0 183.7,-24.461 183.7,-54.671 0,-1.2391 -0.13372,-2.4923 -0.40609,-3.7109 v -48.198 h -0.037 c 0.30507,-1.2888 0.44301,-2.5715 0.44301,-3.8835 0,-30.21 -82.248,-54.714 -183.7,-54.714 z"
           id="path127" />
        <path
           style="fill:#202020"
           inkscape:connector-curvature="0"
           d="m 364.57,248.54 c -98.281,0 -178.52,23.006 -183.44,51.909 v 5.48 c 0.0638,0.40605 0.12534,0.80202 0.22152,1.2082 H 181.13 v 5.782 c 4.7106,28.96 85.019,51.995 183.44,51.995 97.39,0 177.07,-22.559 183.29,-51.089 v -6.6882 h -0.037 c 0.0312,-0.13169 0.0462,-0.25678 0.0738,-0.38834 -0.0153,-0.073 -0.0207,-0.14311 -0.037,-0.21576 v -6.8608 c -6.188,-28.544 -85.878,-51.132 -183.29,-51.132 z"
           id="path129" />
        <path
           style="fill:none;stroke:#0f0f0f;stroke-width:2;stroke-linecap:round;stroke-linejoin:round"
           inkscape:connector-curvature="0"
           transform="matrix(1.2719,0,0,1.4528,100.67,-280.53)"
           d="m 337.39,384.15 c 0,14.226 -57.663,25.759 -128.79,25.759 -71.127,0 -128.79,-11.533 -128.79,-25.759 0,-14.226 57.663,-25.759 128.79,-25.759 71.127,0 128.79,11.533 128.79,25.759 z"
           id="path131" />
        <path
           inkscape:connector-curvature="0"
           transform="matrix(1.2628,0,0,1.4337,102.96,-271.15)"
           d="m 337.39,384.15 c 0,14.226 -57.663,25.759 -128.79,25.759 -71.127,0 -128.79,-11.533 -128.79,-25.759 0,-14.226 57.663,-25.759 128.79,-25.759 71.127,0 128.79,11.533 128.79,25.759 z"
           id="path133" />
        <path
           style="fill:#2d2d2d"
           inkscape:connector-curvature="0"
           transform="matrix(1.317,0,0,1.3879,73.951,-248.33)"
           d="m 337.86,385.22 c 0,13.018 -52.766,23.571 -117.86,23.571 -65.094,0 -117.86,-10.553 -117.86,-23.571 0,-13.018 52.766,-23.571 117.86,-23.571 65.094,0 117.86,10.553 117.86,23.571 z"
           id="path135" />
        <path
           inkscape:connector-curvature="0"
           transform="matrix(1.1371,0,0,1.2251,113.54,-173.69)"
           d="m 337.86,385.22 c 0,13.018 -52.766,23.571 -117.86,23.571 -65.094,0 -117.86,-10.553 -117.86,-23.571 0,-13.018 52.766,-23.571 117.86,-23.571 65.094,0 117.86,10.553 117.86,23.571 z"
           id="path137" />
        <path
           style="opacity:0.2024;fill:#ffffff"
           inkscape:connector-curvature="0"
           transform="matrix(1.1371,0.0069,-0.00743,1.2251,116.41,-173.28)"
           d="m 337.86,385.22 c 0,13.018 -52.766,23.571 -117.86,23.571 -65.094,0 -117.86,-10.553 -117.86,-23.571 0,-13.018 52.766,-23.571 117.86,-23.571 65.094,0 117.86,10.553 117.86,23.571 z"
           id="path139" />
        <path
           inkscape:connector-curvature="0"
           transform="matrix(1.1371,0,0,1.2251,113.54,-170.53)"
           d="m 337.86,385.22 c 0,13.018 -52.766,23.571 -117.86,23.571 -65.094,0 -117.86,-10.553 -117.86,-23.571 0,-13.018 52.766,-23.571 117.86,-23.571 65.094,0 117.86,10.553 117.86,23.571 z"
           id="path141" />
        <path
           style="opacity:0.2024;fill:#ffffff"
           inkscape:connector-curvature="0"
           transform="matrix(1.1371,0.0069,-0.00743,1.2251,116.41,-170.28)"
           d="m 337.86,385.22 c 0,13.018 -52.766,23.571 -117.86,23.571 -65.094,0 -117.86,-10.553 -117.86,-23.571 0,-13.018 52.766,-23.571 117.86,-23.571 65.094,0 117.86,10.553 117.86,23.571 z"
           id="path143" />
        <path
           inkscape:connector-curvature="0"
           transform="matrix(1.1371,0,0,1.2251,113.54,-167.26)"
           d="m 337.86,385.22 c 0,13.018 -52.766,23.571 -117.86,23.571 -65.094,0 -117.86,-10.553 -117.86,-23.571 0,-13.018 52.766,-23.571 117.86,-23.571 65.094,0 117.86,10.553 117.86,23.571 z"
           id="path145" />
        <path
           style="opacity:0.2024;fill:#ffffff"
           inkscape:connector-curvature="0"
           transform="matrix(1.1371,0.0069,-0.00743,1.2251,116.41,-167.27)"
           d="m 337.86,385.22 c 0,13.018 -52.766,23.571 -117.86,23.571 -65.094,0 -117.86,-10.553 -117.86,-23.571 0,-13.018 52.766,-23.571 117.86,-23.571 65.094,0 117.86,10.553 117.86,23.571 z"
           id="path147" />
        <path
           inkscape:connector-curvature="0"
           transform="matrix(1.1371,0,0,1.2251,113.54,-163.99)"
           d="m 337.86,385.22 c 0,13.018 -52.766,23.571 -117.86,23.571 -65.094,0 -117.86,-10.553 -117.86,-23.571 0,-13.018 52.766,-23.571 117.86,-23.571 65.094,0 117.86,10.553 117.86,23.571 z"
           id="path149" />
        <path
           style="opacity:0.40490005;fill:#d8d8d8"
           inkscape:connector-curvature="0"
           d="m 363.5,297.09 c -33.304,0 -60.289,12.489 -60.289,27.914 0,4.0459 1.8702,7.8998 5.2116,11.371 h 110.16 c 3.3415,-3.4711 5.2116,-7.325 5.2116,-11.371 0,-15.425 -26.985,-27.914 -60.289,-27.914 z"
           id="path151" />
        <path
           inkscape:connector-curvature="0"
           d="m 363.5,280.55 c -64.318,0 -116.47,19.426 -116.47,43.391 0,0.74892 0.0574,1.4714 0.15793,2.211 h 232.63 c 0.10057,-0.7396 0.15793,-1.4621 0.15793,-2.211 0,-23.965 -52.154,-43.391 -116.47,-43.391 z"
           id="path153"
           style="fill:url(#s);stroke:#74acff;stroke-width:2.52690005;stroke-opacity:1;filter:url(#filter1018)" />
        <path
           inkscape:connector-curvature="0"
           d="m 363.5,287.58 c -33.304,0 -60.289,14.644 -60.289,32.691 0,2.6921 0.60438,5.3147 1.7372,7.8175 h 117.1 c 1.1328,-2.5028 1.7372,-5.1254 1.7372,-7.8175 0,-18.047 -26.985,-32.691 -60.289,-32.691 z"
           id="path155"
           style="fill:none;stroke:url(#t);stroke-width:2.52690005;filter:url(#filter1026)" />
        <path
           inkscape:connector-curvature="0"
           style="opacity:0.39270002;fill:url(#f)"
           d="m 363.5,302.89 c -45.022,0 -83.19,9.7381 -96.613,23.255 h 193.23 C 446.688,312.632 408.518,302.89 363.504,302.89 Z"
           id="path159" />
        <path
           style="fill:#050505"
           inkscape:connector-curvature="0"
           d="m 204.51,283.19 c -9.2083,5.6537 -14.332,11.888 -14.332,18.438 0,25.699 78.536,46.549 175.42,46.549 96.884,0 175.42,-20.851 175.42,-46.549 0,-6.2591 -4.6599,-12.237 -13.108,-17.688 -9.4781,18.346 -78.177,32.573 -161.52,32.573 -84.46,0 -153.89,-14.622 -161.88,-33.323 z"
           id="path161" />
        <path
           style="fill:#161616"
           inkscape:connector-curvature="0"
           d="m 203.88,278.02 c -8.8264,5.8496 -13.7,12.281 -13.7,19.03 0,27.026 78.266,48.918 174.79,48.918 96.524,0 174.75,-21.892 174.75,-48.918 0,-5.9559 -3.7808,-11.659 -10.739,-16.938 -1.2199,20.157 -73.525,36.403 -162.59,36.403 -89.824,0 -162.67,-16.52 -162.67,-36.916 0,-0.51678 0.0653,-1.0677 0.15793,-1.5793 z"
           id="path163" />
        <path
           inkscape:connector-curvature="0"
           d="m 201.02,275.58 c -0.038,10.003 -0.21997,20.721 -0.21997,21.12 0,24.813 73.875,44.891 165.07,44.891 91.195,0 165.15,-20.078 165.15,-44.891 0,-0.30561 -0.0172,-9.9075 -0.0395,-17.767 h -2.0136 c 0.0164,0.21597 0.0395,0.45433 0.0395,0.6712 0,20.396 -72.803,36.916 -162.63,36.916 -89.827,0 -162.67,-16.52 -162.67,-36.916 0,-0.9947 0.17334,-1.9863 0.51327,-2.9612 -1.1486,-0.33386 -2.1222,-0.66379 -3.215,-1.0632 z"
           id="path165" />
        <path
           style="fill:#0d0d0d"
           inkscape:connector-curvature="0"
           d="m 201.07,275.62 c -0.035,9.0287 -0.27637,18.897 -0.27637,19.262 0,23.635 73.875,42.759 165.07,42.759 91.195,0 165.15,-19.124 165.15,-42.759 0,-0.27462 -0.0196,-9.086 -0.0395,-15.951 h -2.0136 c 0.0164,0.21597 0.0395,0.45433 0.0395,0.6712 0,20.396 -72.803,36.916 -162.63,36.916 -89.827,0 -162.67,-16.52 -162.67,-36.916 0,-0.9947 0.17334,-1.9863 0.51327,-2.9612 -1.1486,-0.33386 -2.0658,-0.62149 -3.1586,-1.0209 z"
           id="path167" />
        <path
           style="opacity:0.25100002;fill:#393939"
           inkscape:connector-curvature="0"
           d="m 201.04,275.61 c -0.0221,2.4586 -0.35998,8.2932 -0.36098,8.4548 -0.14604,23.634 73.64,43.222 164.84,43.786 91.2,0.564 165.24,-18.098 165.39,-41.733 7.3e-4,-0.12369 0.0323,-5.3776 0.0395,-7.1858 h -1.9741 c 0.0164,0.21597 0.0396,0.45433 0.0396,0.6712 0,20.396 -72.803,36.916 -162.63,36.916 -89.827,0 -162.67,-16.52 -162.67,-36.916 0,-0.9947 0.17334,-1.9863 0.51327,-2.9612 -1.1899,-0.34584 -2.0627,-0.61606 -3.1924,-1.0322 z"
           id="path169" />
        <path
           inkscape:connector-curvature="0"
           style="fill:url(#u)"
           d="m 529.93,284.6 c -4.0833,20.983 -77.437,37.695 -167.3,37.695 -28.346,0 -55.05,-1.6523 -78.449,-4.5877 v 3.6701 c 23.404,2.9398 50.099,4.6259 78.449,4.6259 92.48,0 167.45,-17.728 167.45,-39.569 0,-0.61884 -0.0339,-1.2232 -0.15292,-1.8351 z"
           id="path171" />
        <path
           style="fill:#0a0a0a"
           inkscape:connector-curvature="0"
           d="m 529.93,285.19 c -4.0833,20.983 -77.437,37.695 -167.3,37.695 -28.346,0 -55.05,-1.6523 -78.449,-4.5877 v 3.6701 c 23.404,2.9398 50.099,4.6259 78.449,4.6259 92.48,0 167.45,-17.728 167.45,-39.569 0,-0.61885 -0.0339,-1.2232 -0.15292,-1.8351 z"
           id="path173" />
        <path
           style="fill:#151515"
           inkscape:connector-curvature="0"
           d="m 201.03,275.59 c -0.005,1.7704 -0.23689,6.9163 -0.23689,7.0504 0,23.635 73.875,42.759 165.07,42.759 91.195,0 165.15,-19.124 165.15,-42.759 0,-0.0639 10e-4,-3.1614 0,-3.7113 h -2.0531 c 0.0164,0.21597 0.0395,0.45433 0.0395,0.6712 0,20.396 -72.803,36.916 -162.63,36.916 -89.827,0 -162.67,-16.52 -162.67,-36.916 0,-0.9947 0.17335,-1.9863 0.51327,-2.9612 -1.1608,-0.3374 -2.0944,-0.64478 -3.198,-1.0491 z"
           id="path175" />
        <path
           style="fill:none;stroke:#dcdcdc;stroke-width:2;stroke-linecap:round;stroke-linejoin:round"
           inkscape:connector-curvature="0"
           transform="matrix(1.2628,0,0,1.4337,102.96,-271.15)"
           d="m 337.39,384.15 c 0,14.226 -57.663,25.759 -128.79,25.759 -71.127,0 -128.79,-11.533 -128.79,-25.759 0,-14.226 57.663,-25.759 128.79,-25.759 71.127,0 128.79,11.533 128.79,25.759 z"
           id="path177" />
        <path
           sodipodi:nodetypes="cccccccccccccccc"
           style="opacity:0.58362989;fill:url(#linearGradient1342);fill-opacity:1"
           inkscape:connector-curvature="0"
           transform="matrix(1.2634,0,0,1.2634,-92.577,-139.49)"
           d="m 423.06773,394.59465 1.07574,41.32106 11.4973,17.32146 0.58045,139.76209 -14.78822,5.08174 0.0221,141.24051 c 59.79077,-4.66616 75.53556,-18.32166 72.06169,-33.04416 3.56213,-3.70317 5.83702,-7.70921 6.61585,-12.06726 l -0.62484,-20.20224 c 1.33548,-3.98403 1.55058,-7.52716 1.51474,-11.77729 l 0.6694,-90.1813 c 4.28807,-6.55569 10.14399,-12.81476 10.45482,-20.12289 l -0.28642,-137.04196 c 0.19824,-3.94769 -1.04061,-6.5495 -4.77036,-10.49726 l -0.17471,-51.35335 c 0.14224,27.02484 -43.64071,33.44066 -83.84758,41.56085 z"
           id="path179" />
        <path
           sodipodi:nodetypes="ccccccccccccccc"
           inkscape:connector-curvature="0"
           transform="matrix(-1.2634,0,0,1.2634,795.43,-139.49)"
           d="m 428.82551,389.80575 0.87563,47.49937 -8.26814,160.77588 3.66936,137.94065 c 14.71773,-3.58519 28.89865,-8.24402 41.77145,-15.51908 3.86054,-3.02836 5.6571,-8.99537 4.48607,-14.21562 1.90536,-2.21888 5.31547,-6.09318 5.83101,-10.79031 l -0.37303,-22.44476 c 1.32122,-1.837 1.26207,-4.09824 1.36363,-7.57539 0.74887,-29.17766 0.2256,-59.60164 -0.87725,-92.56721 6.81842,-7.44825 13.20894,-15.02236 12.30317,-24.74243 l 0.47486,-134.51853 c -1.34316,-4.95306 -2.68632,-6.86463 -4.02949,-9.14633 l 0.17486,-51.94619 c 1.86279,18.01973 -20.7049,30.26429 -57.40213,37.24995 z"
           id="path181"
           style="opacity:0.55800003;fill:url(#linearGradient930);fill-opacity:1" />
      </g>
    </g>
  </g>
</svg>
