<?xml version="1.0" encoding="UTF-8" standalone="no"?>
<!-- Created with Inkscape (http://www.inkscape.org/) -->

<svg
   xmlns:dc="http://purl.org/dc/elements/1.1/"
   xmlns:cc="http://creativecommons.org/ns#"
   xmlns:rdf="http://www.w3.org/1999/02/22-rdf-syntax-ns#"
   xmlns:svg="http://www.w3.org/2000/svg"
   xmlns="http://www.w3.org/2000/svg"
   xmlns:sodipodi="http://sodipodi.sourceforge.net/DTD/sodipodi-0.dtd"
   xmlns:inkscape="http://www.inkscape.org/namespaces/inkscape"
   width="64"
   height="64"
   id="svg2"
   version="1.1"
   inkscape:version="0.92.2 2405546, 2018-03-11"
   sodipodi:docname="Menu.svg">
  <defs
     id="defs4" />
  <sodipodi:namedview
     id="base"
     pagecolor="#ffffff"
     bordercolor="#666666"
     borderopacity="1.0"
     inkscape:pageopacity="0.0"
     inkscape:pageshadow="2"
     inkscape:zoom="5.7126688"
     inkscape:cx="20.549743"
     inkscape:cy="16.81659"
     inkscape:document-units="px"
     inkscape:current-layer="layer1"
     showgrid="false"
     fit-margin-top="0"
     fit-margin-left="0"
     fit-margin-right="0"
     fit-margin-bottom="0"
     inkscape:window-width="1010"
     inkscape:window-height="867"
     inkscape:window-x="48"
     inkscape:window-y="0"
     inkscape:window-maximized="0"
     inkscape:snap-bbox="true"
     inkscape:snap-page="true"
     inkscape:bbox-nodes="true" />
  <metadata
     id="metadata7">
    <rdf:RDF>
      <cc:Work
         rdf:about="">
        <dc:format>image/svg+xml</dc:format>
        <dc:type
           rdf:resource="http://purl.org/dc/dcmitype/StillImage" />
        <dc:title></dc:title>
      </cc:Work>
    </rdf:RDF>
  </metadata>
  <g
     inkscape:label="Camada 1"
     inkscape:groupmode="layer"
     id="layer1"
     transform="translate(-578.12765,-186.51895)">
    <path
       inkscape:connector-curvature="0"
       style="opacity:1;fill:#0029ff;fill-opacity:0.12156863;fill-rule:nonzero;stroke:#0029ff;stroke-width:2;stroke-linecap:round;stroke-linejoin:miter;stroke-miterlimit:10;stroke-dasharray:none;stroke-dashoffset:0;stroke-opacity:1"
       d="m 584.94015,187.51895 h 50.375 c 3.22013,0 5.8125,2.59237 5.8125,5.8125 v 50.375 c 0,3.22012 -2.59237,5.8125 -5.8125,5.8125 h -50.375 c -3.22012,0 -5.8125,-2.59238 -5.8125,-5.8125 v -50.375 c 0,-3.22013 2.59238,-5.8125 5.8125,-5.8125 z"
       id="rect834" />
    <path
       d="m 585.00333,225.22301 0,-12.42438 3.75297,0 2.25523,8.47621 2.22809,-8.47621 3.76284,0 0,12.42438 -2.32926,0 0,-9.77911 -2.46743,9.77911 -2.41315,0 -2.45756,-9.77911 0,9.77911 -2.33173,0 z"
       style="fill:#000000;fill-opacity:1;fill-rule:nonzero;stroke:none"
       id="path620"
       inkscape:connector-curvature="0" />
    <path
       d="m 599.49457,225.22301 0,-12.42438 9.21092,0 0,2.10239 -6.70155,0 0,2.75385 6.23521,0 0,2.09253 -6.23521,0 0,3.38308 6.93842,0 0,2.09253 -9.44779,0 z"
       style="fill:#000000;fill-opacity:1;fill-rule:nonzero;stroke:none"
       id="path624"
       inkscape:connector-curvature="0" />
    <path
       d="m 611.09619,225.22301 0,-12.42438 2.44029,0 5.08538,8.29608 0,-8.29608 2.32925,0 0,12.42438 -2.51678,0 -5.00889,-8.10114 0,8.10114 -2.32925,0 z"
       style="fill:#000000;fill-opacity:1;fill-rule:nonzero;stroke:none"
       id="path628"
       inkscape:connector-curvature="0" />
    <path
       d="m 623.58756,212.79863 2.50938,0 0,6.72915 c 0,1.06847 0.0296,1.7594 0.0913,2.07525 0.10857,0.5108 0.36518,0.91795 0.76737,1.2264 0.40466,0.30845 0.95736,0.46144 1.65812,0.46144 0.71062,0 1.24852,-0.14559 1.60876,-0.43676 0.36271,-0.29118 0.57985,-0.64898 0.65387,-1.07094 0.0716,-0.42443 0.10857,-1.1277 0.10857,-2.11227 l 0,-6.87227 2.50938,0 0,6.52681 c 0,1.49043 -0.0691,2.54409 -0.20233,3.16099 -0.13571,0.61444 -0.38739,1.1351 -0.7501,1.55953 -0.36518,0.42196 -0.85373,0.76002 -1.46319,1.01172 -0.60946,0.25169 -1.40644,0.37754 -2.38847,0.37754 -1.18684,0 -2.08745,-0.13819 -2.69938,-0.41209 -0.61439,-0.2739 -1.098,-0.62924 -1.45331,-1.066 -0.35778,-0.43924 -0.59219,-0.89821 -0.70322,-1.37939 -0.16532,-0.71067 -0.24675,-1.76187 -0.24675,-3.15113 l 0,-6.62798 z"
       style="fill:#000000;fill-opacity:1;fill-rule:nonzero;stroke:none"
       id="path632"
       inkscape:connector-curvature="0" />
  </g>
</svg>
