<?xml version="1.0" encoding="UTF-8" standalone="no"?>
<!-- Created with Inkscape (http://www.inkscape.org/) -->

<svg
   xmlns:dc="http://purl.org/dc/elements/1.1/"
   xmlns:cc="http://creativecommons.org/ns#"
   xmlns:rdf="http://www.w3.org/1999/02/22-rdf-syntax-ns#"
   xmlns:svg="http://www.w3.org/2000/svg"
   xmlns="http://www.w3.org/2000/svg"
   xmlns:sodipodi="http://sodipodi.sourceforge.net/DTD/sodipodi-0.dtd"
   xmlns:inkscape="http://www.inkscape.org/namespaces/inkscape"
   width="64"
   height="64"
   id="svg2"
   version="1.1"
   inkscape:version="0.92.2 2405546, 2018-03-11"
   sodipodi:docname="Movimento_ProgramadoOK.svg">
  <defs
     id="defs4" />
  <sodipodi:namedview
     id="base"
     pagecolor="#ffffff"
     bordercolor="#666666"
     borderopacity="1.0"
     inkscape:pageopacity="0.0"
     inkscape:pageshadow="2"
     inkscape:zoom="8.0789337"
     inkscape:cx="26.789168"
     inkscape:cy="25.404237"
     inkscape:document-units="px"
     inkscape:current-layer="g5778"
     showgrid="false"
     fit-margin-top="0"
     fit-margin-left="0"
     fit-margin-right="0"
     fit-margin-bottom="0"
     inkscape:window-width="1217"
     inkscape:window-height="867"
     inkscape:window-x="215"
     inkscape:window-y="0"
     inkscape:window-maximized="0"
     inkscape:snap-bbox="true"
     inkscape:bbox-paths="true"
     inkscape:bbox-nodes="true"
     inkscape:snap-bbox-edge-midpoints="true"
     inkscape:object-paths="true"
     inkscape:snap-intersection-paths="true"
     inkscape:object-nodes="true"
     inkscape:snap-smooth-nodes="true"
     inkscape:snap-midpoints="true"
     inkscape:snap-object-midpoints="true"
     inkscape:snap-center="true"
     inkscape:snap-page="true" />
  <metadata
     id="metadata7">
    <rdf:RDF>
      <cc:Work
         rdf:about="">
        <dc:format>image/svg+xml</dc:format>
        <dc:type
           rdf:resource="http://purl.org/dc/dcmitype/StillImage" />
        <dc:title></dc:title>
      </cc:Work>
    </rdf:RDF>
  </metadata>
  <g
     inkscape:label="Camada 1"
     inkscape:groupmode="layer"
     id="layer1"
     transform="translate(-576.80583,-182.4658)">
    <g
       transform="matrix(2.5086234,0,0,-2.5086232,19.382688,476.59209)"
       id="g5778">
      <path
         inkscape:connector-curvature="0"
         style="opacity:1;fill:#0029ff;fill-opacity:0.12156863;fill-rule:nonzero;stroke:#0029ff;stroke-width:0.79725003;stroke-linecap:round;stroke-linejoin:miter;stroke-miterlimit:10;stroke-dasharray:none;stroke-dashoffset:0;stroke-opacity:1"
         d="m 224.91843,116.84748 h 20.08074 c 1.28362,0 2.317,-1.03339 2.317,-2.31701 V 94.449727 c 0,-1.28362 -1.03338,-2.317008 -2.317,-2.317008 h -20.08074 c -1.28362,0 -2.31701,1.033388 -2.31701,2.317008 v 20.080743 c 0,1.28362 1.03339,2.31701 2.31701,2.31701 z"
         id="rect834" />
      <path
         d="m 242.1302,112.6615 0.41,-0.586 c -1.672,-1.258 -3.531,-3.195 -5.578,-5.812 -2.047,-2.618 -3.609,-5.063 -4.687,-7.336 l -0.868,-0.586 c -0.718,-0.5 -1.207,-0.871 -1.465,-1.113 -0.101,0.367 -0.324,0.968 -0.667,1.804 l -0.329,0.762 c -0.468,1.094 -0.904,1.902 -1.306,2.426 -0.403,0.523 -0.854,0.871 -1.354,1.043 0.844,0.89 1.617,1.335 2.321,1.335 0.601,0 1.269,-0.816 2.003,-2.449 l 0.364,-0.82 c 1.32,2.227 3.015,4.391 5.086,6.492 2.07,2.102 4.093,3.715 6.07,4.84"
         style="fill:#00ea00;fill-opacity:1;fill-rule:nonzero;stroke:none"
         id="path602"
         inkscape:connector-curvature="0" />
    </g>
  </g>
</svg>
