<?xml version="1.0" encoding="UTF-8" standalone="no"?>
<!-- Created with Inkscape (http://www.inkscape.org/) -->

<svg
   xmlns:dc="http://purl.org/dc/elements/1.1/"
   xmlns:cc="http://creativecommons.org/ns#"
   xmlns:rdf="http://www.w3.org/1999/02/22-rdf-syntax-ns#"
   xmlns:svg="http://www.w3.org/2000/svg"
   xmlns="http://www.w3.org/2000/svg"
   xmlns:sodipodi="http://sodipodi.sourceforge.net/DTD/sodipodi-0.dtd"
   xmlns:inkscape="http://www.inkscape.org/namespaces/inkscape"
   width="64"
   height="64"
   id="svg2"
   version="1.1"
   inkscape:version="0.92.2 2405546, 2018-03-11"
   sodipodi:docname="Seta_04_Odesl.svg">
  <defs
     id="defs4" />
  <sodipodi:namedview
     id="base"
     pagecolor="#ffffff"
     bordercolor="#666666"
     borderopacity="1.0"
     inkscape:pageopacity="0.0"
     inkscape:pageshadow="2"
     inkscape:zoom="6.7868995"
     inkscape:cx="40.711352"
     inkscape:cy="25.873014"
     inkscape:document-units="px"
     inkscape:current-layer="g5747"
     showgrid="false"
     fit-margin-top="0"
     fit-margin-left="0"
     fit-margin-right="0"
     fit-margin-bottom="0"
     inkscape:window-width="1200"
     inkscape:window-height="867"
     inkscape:window-x="232"
     inkscape:window-y="0"
     inkscape:window-maximized="0"
     inkscape:snap-bbox="true"
     inkscape:snap-page="true"
     inkscape:bbox-nodes="true" />
  <metadata
     id="metadata7">
    <rdf:RDF>
      <cc:Work
         rdf:about="">
        <dc:format>image/svg+xml</dc:format>
        <dc:type
           rdf:resource="http://purl.org/dc/dcmitype/StillImage" />
        <dc:title></dc:title>
      </cc:Work>
    </rdf:RDF>
  </metadata>
  <g
     inkscape:label="Camada 1"
     inkscape:groupmode="layer"
     id="layer1"
     transform="translate(-539.61074,-190.39301)">
    <g
       transform="matrix(0,-2.5086236,-2.5086234,0,919.06963,925.59307)"
       id="g5747">
      <path
         inkscape:connector-curvature="0"
         style="opacity:1;fill:#ffffff;fill-opacity:1;fill-rule:nonzero;stroke:#0029ff;stroke-width:0.79724997;stroke-linecap:round;stroke-linejoin:miter;stroke-miterlimit:10;stroke-dasharray:none;stroke-dashoffset:0;stroke-opacity:1"
         d="m 292.67047,148.54616 v -20.08073 c 0,-1.28362 -1.03338,-2.31701 -2.317,-2.31701 h -20.08073 c -1.28362,0 -2.31701,1.03339 -2.31701,2.31701 v 20.08073 c 0,1.28362 1.03339,2.31701 2.31701,2.31701 h 20.08073 c 1.28362,0 2.317,-1.03339 2.317,-2.31701 z"
         id="rect834" />
      <path
         class="st2"
         d="m 272.01757,137.72292 h 3.10927 v -4.7835 c 0,-0.87697 0.71753,-1.5945 1.5945,-1.5945 h 3.18901 c 0.87697,0 1.59449,0.71753 1.59449,1.5945 v 4.7835 h 3.10928 c 1.07628,0 1.39518,0.75739 0.67766,1.63437 l -5.70034,7.21511 c -0.71752,0.91683 -1.87353,0.91684 -2.59106,0 l -5.70033,-7.21511 c -0.67767,-0.87698 -0.39863,-1.63437 0.71752,-1.63437 z"
         id="path8"
         inkscape:connector-curvature="0"
         style="opacity:0.2;fill:#231f20;stroke-width:0.39862499" />
      <path
         inkscape:connector-curvature="0"
         style="fill:#5b5b5b;fill-opacity:1;stroke-width:0.39862499"
         d="m 281.91772,131.33916 c 0.87697,0 1.5945,0.71752 1.5945,1.59449 v 4.7835 l 3.10959,1e-5 c 1.07628,0 1.39487,0.71737 0.67735,1.6342 l -5.70065,7.25544 c -0.71753,0.91684 -1.87354,0.91684 -2.59106,0 l -5.66017,-7.25544 c -0.71752,-0.87697 -0.39893,-1.6342 0.67735,-1.6342 l 3.10959,-1e-5 v -4.7835 c 0,-0.87697 0.71753,-1.59449 1.5945,-1.59449 z"
         id="path12" />
    </g>
  </g>
</svg>
