<?xml version="1.0" encoding="UTF-8" standalone="no"?>
<!-- Created with Inkscape (http://www.inkscape.org/) -->

<svg
   xmlns:dc="http://purl.org/dc/elements/1.1/"
   xmlns:cc="http://creativecommons.org/ns#"
   xmlns:rdf="http://www.w3.org/1999/02/22-rdf-syntax-ns#"
   xmlns:svg="http://www.w3.org/2000/svg"
   xmlns="http://www.w3.org/2000/svg"
   xmlns:sodipodi="http://sodipodi.sourceforge.net/DTD/sodipodi-0.dtd"
   xmlns:inkscape="http://www.inkscape.org/namespaces/inkscape"
   width="64"
   height="64"
   id="svg2"
   version="1.1"
   inkscape:version="0.92.2 2405546, 2018-03-11"
   sodipodi:docname="Seta_04_O.svg">
  <defs
     id="defs4" />
  <sodipodi:namedview
     id="base"
     pagecolor="#ffffff"
     bordercolor="#666666"
     borderopacity="1.0"
     inkscape:pageopacity="0.0"
     inkscape:pageshadow="2"
     inkscape:zoom="4.7990626"
     inkscape:cx="36.678132"
     inkscape:cy="12.389322"
     inkscape:document-units="px"
     inkscape:current-layer="layer1"
     showgrid="false"
     fit-margin-top="0"
     fit-margin-left="0"
     fit-margin-right="0"
     fit-margin-bottom="0"
     inkscape:window-width="1200"
     inkscape:window-height="867"
     inkscape:window-x="232"
     inkscape:window-y="0"
     inkscape:window-maximized="0"
     inkscape:snap-bbox="true"
     inkscape:snap-page="true"
     inkscape:bbox-nodes="true" />
  <metadata
     id="metadata7">
    <rdf:RDF>
      <cc:Work
         rdf:about="">
        <dc:format>image/svg+xml</dc:format>
        <dc:type
           rdf:resource="http://purl.org/dc/dcmitype/StillImage" />
        <dc:title></dc:title>
      </cc:Work>
    </rdf:RDF>
  </metadata>
  <g
     inkscape:label="Camada 1"
     inkscape:groupmode="layer"
     id="layer1"
     transform="translate(-539.61074,-190.39301)">
    <path
       inkscape:connector-curvature="0"
       style="opacity:1;fill:#0029ff;fill-opacity:0.12156863;fill-rule:nonzero;stroke:#0029ff;stroke-width:2;stroke-linecap:round;stroke-linejoin:miter;stroke-miterlimit:10;stroke-dasharray:none;stroke-dashoffset:0;stroke-opacity:1"
       d="m 546.42325,191.39301 h 50.37501 c 3.22012,0 5.81248,2.59239 5.81248,5.8125 v 50.37502 c 0,3.22012 -2.59236,5.8125 -5.81248,5.8125 h -50.37501 c -3.22012,0 -5.81251,-2.59238 -5.81251,-5.8125 v -50.37502 c 0,-3.22011 2.59239,-5.8125 5.81251,-5.8125 z"
       id="rect834" />
    <path
       class="st2"
       d="m 573.57468,243.20338 v -7.8 l 12,0 c 2.2,0 4,-1.8 4,-4 v -8.00001 c 0,-2.19999 -1.8,-3.99999 -4,-3.99999 h -12 l 0,-7.80001 c 0,-2.69999 -1.9,-3.49999 -4.10001,-1.69999 l -18.09999,14.3 c -2.29999,1.8 -2.3,4.69999 0,6.5 l 18.1,14.29999 c 2.2,1.70001 4.1,1.00001 4.1,-1.79999 z"
       id="path8"
       inkscape:connector-curvature="0"
       style="opacity:0.2;fill:#231f20" />
    <path
       inkscape:connector-curvature="0"
       style="fill:#000000;fill-opacity:1"
       d="m 589.58915,218.36762 c 0,-2.19999 -1.8,-4 -3.99999,-4 h -12 l -10e-6,-7.80078 c 0,-2.7 -1.79961,-3.49922 -4.09961,-1.69922 l -18.20117,14.30078 c -2.29999,1.80001 -2.29999,4.70001 0,6.5 l 18.20117,14.19923 c 2.2,1.8 4.09961,1.00078 4.09961,-1.69922 l 10e-6,-7.80078 h 12 c 2.19999,0 3.99999,-1.80001 3.99999,-4 z"
       id="path12" />
  </g>
</svg>
